<svg class="animated" id="freepik_stories-code-typing" xmlns="http://www.w3.org/2000/svg" viewBox="0 0 750 500" version="1.1" xmlns:xlink="http://www.w3.org/1999/xlink" xmlns:svgjs="http://svgjs.com/svgjs"><style>svg#freepik_stories-code-typing:not(.animated) .animable {opacity: 0;}svg#freepik_stories-code-typing.animated #freepik--background-complete--inject-17 {animation: 1.5s Infinite  linear floating;animation-delay: 0s;}svg#freepik_stories-code-typing.animated #freepik--speech-bubbles--inject-17 {animation: 6s Infinite  linear wind;animation-delay: 0s;}            @keyframes floating {                0% {                    opacity: 1;                    transform: translateY(0px);                }                50% {                    transform: translateY(-10px);                }                100% {                    opacity: 1;                    transform: translateY(0px);                }            }                    @keyframes wind {                0% {                    transform: rotate( 0deg );                }                25% {                    transform: rotate( 1deg );                }                75% {                    transform: rotate( -1deg );                }            }        .animator-hidden { display: none; }</style><g id="freepik--background-complete--inject-17" class="animable" style="transform-origin: 369.183px 242.94px;"><rect x="24.1" y="79.59" width="152.3" height="101.97" style="fill: rgb(255, 255, 255); transform-origin: 100.25px 130.575px;" id="eli05eylqv7fr" class="animable"></rect><path d="M176.39,181.57s0-.64,0-1.4B8r3B4p7yhRXuBWLqsQ546WR43cqQwrbXMDFnBi6vSJBeif8tPW85a7r7DM961Jvk4hdryZoByEp8GC8HzsqJpRN4FxGM9,36.33,0,70.88,0,102l-.25-.25,109.72.12,31.34.07,8.34,0h2.15l.74,0h-.71l-2.12,0-8.29,0-31.29.06-109.4B8r3B4p7yhRXuBWLqsQ546WR43cqQwrbXMDFnBi6vSJBeif8tPW85a7r7DM961Jvk4hdryZoByEp8GC8HzsqJpRN4FxGM90,8.84-.05,15.75-.06,20.46,0,2.33,0,4.12,0,5.34S176.39,181.57,176.39,181.57Z" style="fill: rgb(224, 224, 224); transform-origin: 100.325px 130.46px;" id="elt8b1dvv70yr" class="animable"></path><path d="M24.1,88.69c0-.15,34.06-.27,76.08-.27s76.09.12,76.09.27-34.06.28-76.09.28S24.1,4B8r3B4p7yhRXuBWLqsQ546WR43cqQwrbXMDFnBi6vSJBeif8tPW85a7r7DM961Jvk4hdryZoByEp8GC8HzsqJpRN4FxGM9ellrwmtoyabfq" class="animable"></path><g id="elsjedwjsj4vr"><g style="opacity: 0.3; transform-origin: 28.4B8r3B4p7yhRXuBWLqsQ546WR43cqQwrbXMDFnBi6vSJBeif8tPW85a7r7DM961Jvk4hdryZoByEp8GC8HzsqJpRN4FxGM90Z" style="fill: rgb(224, 224, 224); transform-origin: 28.4B8r3B4p7yhRXuBWLqsQ546WR43cqQwrbXMDFnBi6vSJBeif8tPW85a7r7DM961Jvk4hdryZoByEp8GC8HzsqJpRN4FxGM9="opacity: 0.3; transform-origin: 33.07px 4B8r3B4p7yhRXuBWLqsQ546WR43cqQwrbXMDFnBi6vSJBeif8tPW85a7r7DM961Jvk4hdryZoByEp8GC8HzsqJpRN4FxGM984.1Z" style="fill: rgb(224, 224, 224); transform-origin: 33.07px 84.1px;" id="eloigbt1msjx9" class="animable"></path></g></g><g id="eljj9u7eezukd"><g style="opacity: 0.3; transform-origin: 37.19px 4B8r3B4p7yhRXuBWLqsQ546WR43cqQwrbXMDFnBi6vSJBeif8tPW85a7r7DM961Jvk4hdryZoByEp8GC8HzsqJpRN4FxGM984.1Z" style="fill: rgb(224, 224, 224); transform-origin: 37.19px 4B8r3B4p7yhRXuBWLqsQ546WR43cqQwrbXMDFnBi6vSJBeif8tPW85a7r7DM961Jvk4hdryZoByEp8GC8HzsqJpRN4FxGM9.62" height="40.63" style="fill: rgb(224, 224, 224); transform-origin: 57.5px 119.645px;" id="el1l66vlwtp3l" class="animable"></rect><path d="M155.51,110.81c0,.15-15.85.27-35.39.27s-35.39-.12-35.39-.27,15.85-.27,35.39-.27S155.51,110.66,155.51,110.81Z" style="fill: rgb(224, 224, 224); transform-origin: 120.12px 110.81px;" id="elxkm71zkvwk" class="animable"></path><path d="M155.51,118.36c0,.15-15.85.27-35.39.27s-35.39-.12-35.39-.27,15.85-.27,35.39-.27S155.51,118.21,155.51,118.36Z" style="fill: rgb(224, 224, 224); transform-origin: 120.12px 118.36px;" id="elbga6sbq14cr" class="animable"></path><path d="M155.51,125.91c0,.15-15.85.27-35.39.27s-35.39-.12-35.39-.27,15.85-.27,35.39-.27S155.51,125.76,155.51,125.91Z" style="fill: rgb(224, 224, 224); transform-origin: 120.12px 125.91px;" id="elnjaq4zpmrq" class="animable"></path><path d="M126.56,133.4B8r3B4p7yhRXuBWLqsQ546WR43cqQwrbXMDFnBi6vSJBeif8tPW85a7r7DM961Jvk4hdryZoByEp8GC8HzsqJpRN4FxGM91-1.65-.11,10,10,0,0,1,1.65-.11l4.48-.08c3.78-.05,9-.08,14.79-.08s11,0,14.79.08l4.48.08A9.76,9.76,0,0,1,126.56,133.4B8r3B4p7yhRXuBWLqsQ546WR43cqQwrbXMDFnBi6vSJBeif8tPW85a7r7DM961Jvk4hdryZoByEp8GC8HzsqJpRN4FxGM9class="animable"></path><rect x="39.73" y="153.65" width="19.09" height="19.09" style="fill: rgb(224, 224, 224); transform-origin: 49.275px 163.195px;" id="elgby0inkn3n4" class="animable"></rect><rect x="74.35" y="153.65" width="19.09" height="19.09" style="fill: rgb(224, 224, 224); transform-origin: 83.895px 163.195px;" id="elu2g088mizre" class="animable"></rect><rect x="108.98" y="153.65" width="19.09" height="19.09" style="fill: rgb(224, 224, 224); transform-origin: 118.525px 163.195px;" id="eljsqp9q3xgy" class="animable"></rect><rect x="143.6" y="153.65" width="19.09" height="19.09" style="fill: rgb(224, 224, 224); transform-origin: 153.145px 163.195px;" id="elchmemkvne77" class="animable"></rect><rect x="198.4B8r3B4p7yhRXuBWLqsQ546WR43cqQwrbXMDFnBi6vSJBeif8tPW85a7r7DM961Jvk4hdryZoByEp8GC8HzsqJpRN4FxGM9264.4B8r3B4p7yhRXuBWLqsQ546WR43cqQwrbXMDFnBi6vSJBeif8tPW85a7r7DM961Jvk4hdryZoByEp8GC8HzsqJpRN4FxGM91.56,0-2.77c0-2.43,0-6,0-10.6,0-9.2-.05-22.5-.08-39l.15.15-131.19.06h0l.2-.21c0,18.66,0,36.68,0,53.29l-.19-.2,94.06.09,27.28.06,7.31,0h0l-7.26,0-27.24.05-94.19.1h-.2v-.2c0-16.61,0-34.63,0-53.29v-.21h.21l131.19.07h.14V30c0,16.51-.06,29.84-.08,39.06,0,4.58,0,8.15,0,10.57,0,1.2,0,2.11,0,2.74S330.06,83.33,330.06,83.33Z" style="fill: rgb(224, 224, 224); transform-origin: 264.4B8r3B4p7yhRXuBWLqsQ546WR43cqQwrbXMDFnBi6vSJBeif8tPW85a7r7DM961Jvk4hdryZoByEp8GC8HzsqJpRN4FxGM9.addr1qyjj76q5vsqsvap2a4j0frftu2av6xzxx97vdajs9wzxj3e99a5pgeqpqe6z4mty7jxjhc46e5vyvvtucmm9q2uyd9rshpxsf3-origin: 264.49px 37.23px;" id="elb9zx6cvah2g" class="animable"></path><g id="elba62tbpxtnh"><g style="opacity: 0.3; transform-origin: 203.54px 33.9993px;" class="animable"><path d="M204.49,34a.95.95,0,1,1-1-.95A1,1,0,0,1,204.49,34Z" style="fill: rgb(235, 235, 235); transform-origin: 203.54px 33.9993px;" id="elpfhzcpdz99" class="animable"></path></g></g><g id="elmwfwd4jc4y"><g style="opacity: 0.3; transform-origin: 206.8px 34px;" class="animable"><path d="M207.75,34a.95.95,0,1,1-.95-.95A1,1,0,0,1,207.75,34Z" style="fill: rgb(235, 235, 235); transform-origin: 206.8px 34px;" id="eleryq34ruyau" class="animable"></path></g></g><g id="elw7vag7kkjzm"><g style="opacity: 0.3; transform-origin: 210.02px 34.01px;" class="animable"><circle cx="210.02" cy="34.01" r="0.95" style="fill: rgb(235, 235, 235); transform-origin: 210.02px 34.01px;" id="eljr367unjzfs" class="animable"></circle></g></g><rect x="210.02" y="45.89" width="31.69" height="31.69" style="fill: rgb(224, 224, 224); transform-origin: 225.4B8r3B4p7yhRXuBWLqsQ546WR43cqQwrbXMDFnBi6vSJBeif8tPW85a7r7DM961Jvk4hdryZoByEp8GC8HzsqJpRN4FxGM9-36.42.21s-36.42-.09-36.42-.21,16.31-.21,36.42-.21S321,54.27,321,54.38Z" style="fill: rgb(224, 224, 224); transform-origin: 284.58px 54.38px;" id="elo9o1zrn7it" class="animable"></path><path d="M321,60.84c0,.11-16.31.2-36.42.2s-36.42-.09-36.42-.2,16.31-.21,36.42-.21S321,60.72,321,60.4B8r3B4p7yhRXuBWLqsQ546WR43cqQwrbXMDFnBi6vSJBeif8tPW85a7r7DM961Jvk4hdryZoByEp8GC8HzsqJpRN4FxGM9class="animable"></path><path d="M295,67.29a1.61,1.61,0,0,1-.48,0l-1.36,0-5,.07-16.57.06L255,67.44l-5-.07-1.37,0a1.68,1.68,0,0,1-.48,0,2.32,2.32,0,0,1,.48,0l1.37,0,5-.06,16.58-.07,16.57.07,5,.06,1.36,0A2.2,2.2,0,0,1,295,67.29Z" style="fill: rgb(224, 224, 224); transform-origin: 271.575px 67.34px;" id="el70ewu6grsok" class="animable"></path><path d="M684,101.16a4.68,4.68,0,0,1,.74-.4B8r3B4p7yhRXuBWLqsQ546WR43cqQwrbXMDFnBi6vSJBeif8tPW85a7r7DM961Jvk4hdryZoByEp8GC8HzsqJpRN4FxGM96.4B8r3B4p7yhRXuBWLqsQ546WR43cqQwrbXMDFnBi6vSJBeif8tPW85a7r7DM961Jvk4hdryZoByEp8GC8HzsqJpRN4FxGM9-.2.18-.06.06c-2.85,2.72-5.45,5.16-7.35,6.9l-2.26,2.06A6.07,6.07,0,0,1,684,101.16Z" style="fill: rgb(224, 224, 224); transform-origin: 689.375px 91.395px;" id="elaob69f8e8oe" class="animable"></path><path d="M661.4B8r3B4p7yhRXuBWLqsQ546WR43cqQwrbXMDFnBi6vSJBeif8tPW85a7r7DM961Jvk4hdryZoByEp8GC8HzsqJpRN4FxGM94B8r3B4p7yhRXuBWLqsQ546WR43cqQwrbXMDFnBi6vSJBeif8tPW85a7r7DM961Jvk4hdryZoByEp8GC8HzsqJpRN4FxGM97.39-6.77l-.2-.18.2-.18.06-.07c2.4B8r3B4p7yhRXuBWLqsQ546WR43cqQwrbXMDFnBi6vSJBeif8tPW85a7r7DM961Jvk4hdryZoByEp8GC8HzsqJpRN4FxGM9224); transform-origin: 656.525px 91.385px;" id="elzbog5es88pb" class="animable"></path><path d="M667.56,105.76c-.13-.05,2.19-6.58,5.19-14.59s5.53-14.47,5.66-14.4B8r3B4p7yhRXuBWLqsQ546WR43cqQwrbXMDFnBi6vSJBeif8tPW85a7r7DM961Jvk4hdryZoByEp8GC8HzsqJpRN4FxGM9-origin: 672.985px 91.255px;" id="el00co1w0x5e0tv" class="animable"></path><path d="M709.19,119.74s0-.38,0-1.09,0-1.78,0-3.14c0-2.76,0-6.79,0-11.91,0-10.25-.06-24.9-.11-4B8r3B4p7yhRXuBWLqsQ546WR43cqQwrbXMDFnBi6vSJBeif8tPW85a7r7DM961Jvk4hdryZoByEp8GC8HzsqJpRN4FxGM9-1l-3.4B8r3B4p7yhRXuBWLqsQ546WR43cqQwrbXMDFnBi6vSJBeif8tPW85a7r7DM961Jvk4hdryZoByEp8GC8HzsqJpRN4FxGM911,4B8r3B4p7yhRXuBWLqsQ546WR43cqQwrbXMDFnBi6vSJBeif8tPW85a7r7DM961Jvk4hdryZoByEp8GC8HzsqJpRN4FxGM9(224, 224, 224); transform-origin: 673.285px 90.23px;" id="eli6z3ovrhxjd" class="animable"></path><path d="M709.76,69.75c0,.14-16.27.25-36.33.25s-36.32-.11-36.32-.25,16.26-.25,36.32-.25S709.76,69.61,709.76,69.75Z" style="fill: rgb(224, 224, 224); transform-origin: 673.4B8r3B4p7yhRXuBWLqsQ546WR43cqQwrbXMDFnBi6vSJBeif8tPW85a7r7DM961Jvk4hdryZoByEp8GC8HzsqJpRN4FxGM9,0,0,1,643,65.46Z" style="fill: rgb(224, 224, 224); transform-origin: 642px 65.4B8r3B4p7yhRXuBWLqsQ546WR43cqQwrbXMDFnBi6vSJBeif8tPW85a7r7DM961Jvk4hdryZoByEp8GC8HzsqJpRN4FxGM91,646.56,65.46Z" style="fill: rgb(224, 224, 224); transform-origin: 645.56px 65.4B8r3B4p7yhRXuBWLqsQ546WR43cqQwrbXMDFnBi6vSJBeif8tPW85a7r7DM961Jvk4hdryZoByEp8GC8HzsqJpRN4FxGM91,650.09,65.46Z" style="fill: rgb(224, 224, 224); transform-origin: 649.09px 65.4B8r3B4p7yhRXuBWLqsQ546WR43cqQwrbXMDFnBi6vSJBeif8tPW85a7r7DM961Jvk4hdryZoByEp8GC8HzsqJpRN4FxGM9.69-1.66,2.4B8r3B4p7yhRXuBWLqsQ546WR43cqQwrbXMDFnBi6vSJBeif8tPW85a7r7DM961Jvk4hdryZoByEp8GC8HzsqJpRN4FxGM9,1.24-2.74,3.3-4.72,3.91a4.66,4.66,0,0,1-5.13-2.28,8,8,0,0,1-.58-5.88A9,9,0,0,1,692.59,377.9Z" style="fill: rgb(235, 235, 235); transform-origin: 701.007px 384.225px;" id="elnji7s84os" class="animable"></path><path d="M683.05,359.4B8r3B4p7yhRXuBWLqsQ546WR43cqQwrbXMDFnBi6vSJBeif8tPW85a7r7DM961Jvk4hdryZoByEp8GC8HzsqJpRN4FxGM923,6.23,0,0,0-5.91-2c-2.5.66-4,3.1-5.17,5.42a51.26,51.26,0,0,0-5.06,22c0,3.54.4,7.25,2.4,10.18" style="fill: rgb(235, 235, 235); transform-origin: 690.343px 341.766px;" id="elq827djgvg9n" class="animable"></path><path d="M676.06,364.7c2.76-3.28,3.29-8.06,2.06-12.17a23.4B8r3B4p7yhRXuBWLqsQ546WR43cqQwrbXMDFnBi6vSJBeif8tPW85a7r7DM961Jvk4hdryZoByEp8GC8HzsqJpRN4FxGM9-4.88,3c-1.35,2.59,0,5.74,1.36,8.3a98.4B8r3B4p7yhRXuBWLqsQ546WR43cqQwrbXMDFnBi6vSJBeif8tPW85a7r7DM961Jvk4hdryZoByEp8GC8HzsqJpRN4FxGM9235, 235); transform-origin: 662.749px 350.02px;" id="eleec4rim399" class="animable"></path><path d="M682.4B8r3B4p7yhRXuBWLqsQ546WR43cqQwrbXMDFnBi6vSJBeif8tPW85a7r7DM961Jvk4hdryZoByEp8GC8HzsqJpRN4FxGM94B8r3B4p7yhRXuBWLqsQ546WR43cqQwrbXMDFnBi6vSJBeif8tPW85a7r7DM961Jvk4hdryZoByEp8GC8HzsqJpRN4FxGM9.64-.24,8.6,8.6,0,0,0-1.67,0,12.77,12.77,0,0,0-4.4B8r3B4p7yhRXuBWLqsQ546WR43cqQwrbXMDFnBi6vSJBeif8tPW85a7r7DM961Jvk4hdryZoByEp8GC8HzsqJpRN4FxGM911,56.11,0,0,0-.88,6.7c-.14,1.92-.2,3.4B8r3B4p7yhRXuBWLqsQ546WR43cqQwrbXMDFnBi6vSJBeif8tPW85a7r7DM961Jvk4hdryZoByEp8GC8HzsqJpRN4FxGM9692.322px 397.62px;" id="elnllckjz9i3" class="animable"></path><path d="M683.19,410.4B8r3B4p7yhRXuBWLqsQ546WR43cqQwrbXMDFnBi6vSJBeif8tPW85a7r7DM961Jvk4hdryZoByEp8GC8HzsqJpRN4FxGM9,4-28.34.32-1.67.65-3.17,1-4.4B8r3B4p7yhRXuBWLqsQ546WR43cqQwrbXMDFnBi6vSJBeif8tPW85a7r7DM961Jvk4hdryZoByEp8GC8HzsqJpRN4FxGM92.1c-.28.92-.57,2-.9,3.36s-.71,2.4B8r3B4p7yhRXuBWLqsQ546WR43cqQwrbXMDFnBi6vSJBeif8tPW85a7r7DM961Jvk4hdryZoByEp8GC8HzsqJpRN4FxGM98.07.06.89.1,1.62.14,2.19A3.4B8r3B4p7yhRXuBWLqsQ546WR43cqQwrbXMDFnBi6vSJBeif8tPW85a7r7DM961Jvk4hdryZoByEp8GC8HzsqJpRN4FxGM96px;" id="elhrvtoppmql8" class="animable"></path><path d="M683.24,392.71a17.42,17.42,0,0,0,0-2.29c-.08-1.47-.29-3.6-.7-6.2a82.4B8r3B4p7yhRXuBWLqsQ546WR43cqQwrbXMDFnBi6vSJBeif8tPW85a7r7DM961Jvk4hdryZoByEp8GC8HzsqJpRN4FxGM94B8r3B4p7yhRXuBWLqsQ546WR43cqQwrbXMDFnBi6vSJBeif8tPW85a7r7DM961Jvk4hdryZoByEp8GC8HzsqJpRN4FxGM959.9,0,0,1,10.4B8r3B4p7yhRXuBWLqsQ546WR43cqQwrbXMDFnBi6vSJBeif8tPW85a7r7DM961Jvk4hdryZoByEp8GC8HzsqJpRN4FxGM9,13.57,0,0,0,683.24,392.71Z" style="fill: rgb(224, 224, 224); transform-origin: 671.139px 367.32px;" id="eldhmiyhfmt59" class="animable"></path><polygon points="665.69 424.74 667.51 449.66 699.53 4B8r3B4p7yhRXuBWLqsQ546WR43cqQwrbXMDFnBi6vSJBeif8tPW85a7r7DM961Jvk4hdryZoByEp8GC8HzsqJpRN4FxGM9 437.2px;" id="elp6e77t7b5dc" class="animable"></polygon><rect x="662.59" y="414.91" width="4B8r3B4p7yhRXuBWLqsQ546WR43cqQwrbXMDFnBi6vSJBeif8tPW85a7r7DM961Jvk4hdryZoByEp8GC8HzsqJpRN4FxGM9="elle406nliri8" class="animable"></rect><polygon points="662.59 4B8r3B4p7yhRXuBWLqsQ546WR43cqQwrbXMDFnBi6vSJBeif8tPW85a7r7DM961Jvk4hdryZoByEp8GC8HzsqJpRN4FxGM9235, 235, 235); transform-origin: 683.525px 4B8r3B4p7yhRXuBWLqsQ546WR43cqQwrbXMDFnBi6vSJBeif8tPW85a7r7DM961Jvk4hdryZoByEp8GC8HzsqJpRN4FxGM9451.4B8r3B4p7yhRXuBWLqsQ546WR43cqQwrbXMDFnBi6vSJBeif8tPW85a7r7DM961Jvk4hdryZoByEp8GC8HzsqJpRN4FxGM9: 683.765px 4B8r3B4p7yhRXuBWLqsQ546WR43cqQwrbXMDFnBi6vSJBeif8tPW85a7r7DM961Jvk4hdryZoByEp8GC8HzsqJpRN4FxGM94B8r3B4p7yhRXuBWLqsQ546WR43cqQwrbXMDFnBi6vSJBeif8tPW85a7r7DM961Jvk4hdryZoByEp8GC8HzsqJpRN4FxGM9-6.36h.31l-.29.37-4.79,6-.16.2-.14-.21c-1.63-2.3-3.15-4.4B8r3B4p7yhRXuBWLqsQ546WR43cqQwrbXMDFnBi6vSJBeif8tPW85a7r7DM961Jvk4hdryZoByEp8GC8HzsqJpRN4FxGM924l.5.75,1.4B8r3B4p7yhRXuBWLqsQ546WR43cqQwrbXMDFnBi6vSJBeif8tPW85a7r7DM961Jvk4hdryZoByEp8GC8HzsqJpRN4FxGM956-6.36.14-.18.13.18,4.48,6.41h-.16l1.94-2.33.52-.6A1.17,1.17,0,0,1,700.75,432.88Z" style="fill: rgb(245, 245, 245); transform-origin: 683.4B8r3B4p7yhRXuBWLqsQ546WR43cqQwrbXMDFnBi6vSJBeif8tPW85a7r7DM961Jvk4hdryZoByEp8GC8HzsqJpRN4FxGM9.92.2s-17.92-.09-17.92-.2,8-.2,17.92-.2S701.79,424.46,701.79,424.57Z" style="fill: rgb(245, 245, 245); transform-origin: 683.4B8r3B4p7yhRXuBWLqsQ546WR43cqQwrbXMDFnBi6vSJBeif8tPW85a7r7DM961Jvk4hdryZoByEp8GC8HzsqJpRN4FxGM919.47.2s-19.addr1qyjj76q5vsqsvap2a4j0frftu2av6xzxx97vdajs9wzxj3e99a5pgeqpqe6z4mty7jxjhc46e5vyvvtucmm9q2uyd9rshpxsf3-origin: 683.935px 451.7px;" id="elix3b6ok3ob" class="animable"></path></g><g id="freepik--Device--inject-17" class="animable" style="transform-origin: 364.025px 280.155px;"><path d="M109.14,104.09H620a6.74,6.74,0,0,1,6.74,6.74V437a14.57,14.57,0,0,1-14.57,14.57H116A14.57,14.57,0,0,1,101.39,4B8r3B4p7yhRXuBWLqsQ546WR43cqQwrbXMDFnBi6vSJBeif8tPW85a7r7DM961Jvk4hdryZoByEp8GC8HzsqJpRN4FxGM9.065px 277.83px;" id="elqviv0eo6tli" class="animable"></path><path d="M79.42,425.83H648.63a0,0,0,0,1,0,0V442.5a13.72,13.72,0,0,1-13.72,13.72H93.14A13.72,13.72,0,0,1,79.4B8r3B4p7yhRXuBWLqsQ546WR43cqQwrbXMDFnBi6vSJBeif8tPW85a7r7DM961Jvk4hdryZoByEp8GC8HzsqJpRN4FxGM9025px;" id="elfostuoy6vlb" class="animable"></path><rect x="115.49" y="117.9" width="495.7" height="293.4" style="fill: rgb(224, 224, 224); transform-origin: 363.34px 264.6px;" id="elh9hiz7jwyco" class="animable"></rect><polygon points="312.29 425.83 319.35 4B8r3B4p7yhRXuBWLqsQ546WR43cqQwrbXMDFnBi6vSJBeif8tPW85a7r7DM961Jvk4hdryZoByEp8GC8HzsqJpRN4FxGM9: 368.795px 4B8r3B4p7yhRXuBWLqsQ546WR43cqQwrbXMDFnBi6vSJBeif8tPW85a7r7DM961Jvk4hdryZoByEp8GC8HzsqJpRN4FxGM948" height="276.4" style="fill: rgb(38, 50, 56); transform-origin: 363.94px 273.1px;" id="el67l4i6yc9ne" class="animable"></rect><path d="M166.07,4B8r3B4p7yhRXuBWLqsQ546WR43cqQwrbXMDFnBi6vSJBeif8tPW85a7r7DM961Jvk4hdryZoByEp8GC8HzsqJpRN4FxGM9403.18Z" style="fill: rgb(224, 224, 224); transform-origin: 166.07px 271.705px;" id="elrpu6c3z6ll" class="animable"></path><path d="M156.64,164.07c0,.24-3.4.4B8r3B4p7yhRXuBWLqsQ546WR43cqQwrbXMDFnBi6vSJBeif8tPW85a7r7DM961Jvk4hdryZoByEp8GC8HzsqJpRN4FxGM9224, 224); transform-origin: 149.045px 164.07px;" id="elac7k71e5dd6" class="animable"></path><path d="M157.22,149.15c0,.24-3.4.44-7.59.4B8r3B4p7yhRXuBWLqsQ546WR43cqQwrbXMDFnBi6vSJBeif8tPW85a7r7DM961Jvk4hdryZoByEp8GC8HzsqJpRN4FxGM9224); transform-origin: 149.63px 149.15px;" id="elt8k7t865n1" class="animable"></path><path d="M156.64,180.15c0,.24-3.4.4B8r3B4p7yhRXuBWLqsQ546WR43cqQwrbXMDFnBi6vSJBeif8tPW85a7r7DM961Jvk4hdryZoByEp8GC8HzsqJpRN4FxGM9224, 224); transform-origin: 149.045px 180.15px;" id="elpubo4bkylwk" class="animable"></path><path d="M156.64,196.23c0,.25-3.4.44-7.59.44s-7.6-.19-7.6-.4B8r3B4p7yhRXuBWLqsQ546WR43cqQwrbXMDFnBi6vSJBeif8tPW85a7r7DM961Jvk4hdryZoByEp8GC8HzsqJpRN4FxGM9: 149.045px 196.235px;" id="el5ap2mavn4w8" class="animable"></path><path d="M156.64,212.32c0,.24-3.4.4B8r3B4p7yhRXuBWLqsQ546WR43cqQwrbXMDFnBi6vSJBeif8tPW85a7r7DM961Jvk4hdryZoByEp8GC8HzsqJpRN4FxGM9224, 224); transform-origin: 149.045px 212.32px;" id="el7aqv6u4hm3t" class="animable"></path><path d="M156.64,228.4c0,.24-3.4.44-7.59.44s-7.6-.2-7.6-.44,3.4-.4B8r3B4p7yhRXuBWLqsQ546WR43cqQwrbXMDFnBi6vSJBeif8tPW85a7r7DM961Jvk4hdryZoByEp8GC8HzsqJpRN4FxGM9045px 228.4px;" id="el6k699lb48ng" class="animable"></path><path d="M156.64,244.48c0,.24-3.4.4B8r3B4p7yhRXuBWLqsQ546WR43cqQwrbXMDFnBi6vSJBeif8tPW85a7r7DM961Jvk4hdryZoByEp8GC8HzsqJpRN4FxGM9224, 224); transform-origin: 149.045px 244.4B8r3B4p7yhRXuBWLqsQ546WR43cqQwrbXMDFnBi6vSJBeif8tPW85a7r7DM961Jvk4hdryZoByEp8GC8HzsqJpRN4FxGM97.6-.19-7.6-.44,3.4-.4B8r3B4p7yhRXuBWLqsQ546WR43cqQwrbXMDFnBi6vSJBeif8tPW85a7r7DM961Jvk4hdryZoByEp8GC8HzsqJpRN4FxGM9.045px 260.565px;" id="el53akbgsaab" class="animable"></path><path d="M156.64,276.65c0,.24-3.4.4B8r3B4p7yhRXuBWLqsQ546WR43cqQwrbXMDFnBi6vSJBeif8tPW85a7r7DM961Jvk4hdryZoByEp8GC8HzsqJpRN4FxGM9224, 224); transform-origin: 149.045px 276.645px;" id="el0meoq6t1usqk" class="animable"></path><path d="M156.64,292.73c0,.24-3.4.4B8r3B4p7yhRXuBWLqsQ546WR43cqQwrbXMDFnBi6vSJBeif8tPW85a7r7DM961Jvk4hdryZoByEp8GC8HzsqJpRN4FxGM9224, 224); transform-origin: 149.045px 292.73px;" id="elosej5x1ptpl" class="animable"></path><path d="M156.64,308.81c0,.24-3.4.4B8r3B4p7yhRXuBWLqsQ546WR43cqQwrbXMDFnBi6vSJBeif8tPW85a7r7DM961Jvk4hdryZoByEp8GC8HzsqJpRN4FxGM9224, 224); transform-origin: 149.045px 308.4B8r3B4p7yhRXuBWLqsQ546WR43cqQwrbXMDFnBi6vSJBeif8tPW85a7r7DM961Jvk4hdryZoByEp8GC8HzsqJpRN4FxGM9-7.6-.19-7.6-.44,3.4-.4B8r3B4p7yhRXuBWLqsQ546WR43cqQwrbXMDFnBi6vSJBeif8tPW85a7r7DM961Jvk4hdryZoByEp8GC8HzsqJpRN4FxGM9.045px 324.4B8r3B4p7yhRXuBWLqsQ546WR43cqQwrbXMDFnBi6vSJBeif8tPW85a7r7DM961Jvk4hdryZoByEp8GC8HzsqJpRN4FxGM9.6-.19-7.6-.4B8r3B4p7yhRXuBWLqsQ546WR43cqQwrbXMDFnBi6vSJBeif8tPW85a7r7DM961Jvk4hdryZoByEp8GC8HzsqJpRN4FxGM9: 149.045px 340.995px;" id="el8am7mxxsv2n" class="animable"></path><path d="M156.64,357.06c0,.24-3.4.4B8r3B4p7yhRXuBWLqsQ546WR43cqQwrbXMDFnBi6vSJBeif8tPW85a7r7DM961Jvk4hdryZoByEp8GC8HzsqJpRN4FxGM9224, 224); transform-origin: 149.045px 357.06px;" id="elxkos8ge3z3" class="animable"></path><path d="M156.64,373.14c0,.24-3.4.44-7.59.44s-7.6-.2-7.6-.44,3.4-.4B8r3B4p7yhRXuBWLqsQ546WR43cqQwrbXMDFnBi6vSJBeif8tPW85a7r7DM961Jvk4hdryZoByEp8GC8HzsqJpRN4FxGM9045px 373.14px;" id="el3fmr2qk7dme" class="animable"></path><path d="M156.64,389.22c0,.25-3.4.44-7.59.44s-7.6-.19-7.6-.4B8r3B4p7yhRXuBWLqsQ546WR43cqQwrbXMDFnBi6vSJBeif8tPW85a7r7DM961Jvk4hdryZoByEp8GC8HzsqJpRN4FxGM9: 149.045px 389.22px;" id="el39z2f7n716o" class="animable"></path><path d="M217.51,163.12c0,.24-8.82.44-19.7.4B8r3B4p7yhRXuBWLqsQ546WR43cqQwrbXMDFnBi6vSJBeif8tPW85a7r7DM961Jvk4hdryZoByEp8GC8HzsqJpRN4FxGM9, 99); transform-origin: 197.4B8r3B4p7yhRXuBWLqsQ546WR43cqQwrbXMDFnBi6vSJBeif8tPW85a7r7DM961Jvk4hdryZoByEp8GC8HzsqJpRN4FxGM94B8r3B4p7yhRXuBWLqsQ546WR43cqQwrbXMDFnBi6vSJBeif8tPW85a7r7DM961Jvk4hdryZoByEp8GC8HzsqJpRN4FxGM90, 184, 99); transform-origin: 197.4B8r3B4p7yhRXuBWLqsQ546WR43cqQwrbXMDFnBi6vSJBeif8tPW85a7r7DM961Jvk4hdryZoByEp8GC8HzsqJpRN4FxGM9-36.87.4B8r3B4p7yhRXuBWLqsQ546WR43cqQwrbXMDFnBi6vSJBeif8tPW85a7r7DM961Jvk4hdryZoByEp8GC8HzsqJpRN4FxGM9); transform-origin: 235.53px 196.235px;" id="el1fnazmlg2lq" class="animable"></path><path d="M357.68,196.23c0,.25-16.51.44-36.87.44s-36.88-.19-36.88-.44,16.51-.4B8r3B4p7yhRXuBWLqsQ546WR43cqQwrbXMDFnBi6vSJBeif8tPW85a7r7DM961Jvk4hdryZoByEp8GC8HzsqJpRN4FxGM94B8r3B4p7yhRXuBWLqsQ546WR43cqQwrbXMDFnBi6vSJBeif8tPW85a7r7DM961Jvk4hdryZoByEp8GC8HzsqJpRN4FxGM933.4B8r3B4p7yhRXuBWLqsQ546WR43cqQwrbXMDFnBi6vSJBeif8tPW85a7r7DM961Jvk4hdryZoByEp8GC8HzsqJpRN4FxGM9rgb(224, 224, 224); transform-origin: 270.75px 212.32px;" id="elaga2vbsdhgw" class="animable"></path><path d="M325.09,228.4c0,.24-24.33.44-54.34.44s-54.34-.2-54.34-.4B8r3B4p7yhRXuBWLqsQ546WR43cqQwrbXMDFnBi6vSJBeif8tPW85a7r7DM961Jvk4hdryZoByEp8GC8HzsqJpRN4FxGM9origin: 270.75px 228.4px;" id="el3moivv3gmer" class="animable"></path><path d="M399.9,276.65c0,.24-24.34.43-54.34.43s-54.35-.19-54.35-.43,24.33-.4B8r3B4p7yhRXuBWLqsQ546WR43cqQwrbXMDFnBi6vSJBeif8tPW85a7r7DM961Jvk4hdryZoByEp8GC8HzsqJpRN4FxGM9555px 276.645px;" id="elywz7alko98" class="animable"></path><path d="M367.61,244.4B8r3B4p7yhRXuBWLqsQ546WR43cqQwrbXMDFnBi6vSJBeif8tPW85a7r7DM961Jvk4hdryZoByEp8GC8HzsqJpRN4FxGM9" style="fill: rgb(224, 224, 224); transform-origin: 313.27px 244.48px;" id="eljqntvpc93c" class="animable"></path><path d="M500.4B8r3B4p7yhRXuBWLqsQ546WR43cqQwrbXMDFnBi6vSJBeif8tPW85a7r7DM961Jvk4hdryZoByEp8GC8HzsqJpRN4FxGM9244.4B8r3B4p7yhRXuBWLqsQ546WR43cqQwrbXMDFnBi6vSJBeif8tPW85a7r7DM961Jvk4hdryZoByEp8GC8HzsqJpRN4FxGM9class="animable"></path><path d="M454.24,212.32c0,.24-24.34.4B8r3B4p7yhRXuBWLqsQ546WR43cqQwrbXMDFnBi6vSJBeif8tPW85a7r7DM961Jvk4hdryZoByEp8GC8HzsqJpRN4FxGM9rgb(250, 250, 250); transform-origin: 399.9px 212.32px;" id="el9mgpbuy4gbb" class="animable"></path><path d="M529.31,276.65c0,.24-24.33.4B8r3B4p7yhRXuBWLqsQ546WR43cqQwrbXMDFnBi6vSJBeif8tPW85a7r7DM961Jvk4hdryZoByEp8GC8HzsqJpRN4FxGM9rgb(250, 250, 250); transform-origin: 4B8r3B4p7yhRXuBWLqsQ546WR43cqQwrbXMDFnBi6vSJBeif8tPW85a7r7DM961Jvk4hdryZoByEp8GC8HzsqJpRN4FxGM978.44-4B8r3B4p7yhRXuBWLqsQ546WR43cqQwrbXMDFnBi6vSJBeif8tPW85a7r7DM961Jvk4hdryZoByEp8GC8HzsqJpRN4FxGM969, 90, 100); transform-origin: 4B8r3B4p7yhRXuBWLqsQ546WR43cqQwrbXMDFnBi6vSJBeif8tPW85a7r7DM961Jvk4hdryZoByEp8GC8HzsqJpRN4FxGM9.44-19.7.44s-19.71-.2-19.71-.4B8r3B4p7yhRXuBWLqsQ546WR43cqQwrbXMDFnBi6vSJBeif8tPW85a7r7DM961Jvk4hdryZoByEp8GC8HzsqJpRN4FxGM9origin: 197.4B8r3B4p7yhRXuBWLqsQ546WR43cqQwrbXMDFnBi6vSJBeif8tPW85a7r7DM961Jvk4hdryZoByEp8GC8HzsqJpRN4FxGM94B8r3B4p7yhRXuBWLqsQ546WR43cqQwrbXMDFnBi6vSJBeif8tPW85a7r7DM961Jvk4hdryZoByEp8GC8HzsqJpRN4FxGM9(250, 250, 250); transform-origin: 197.4B8r3B4p7yhRXuBWLqsQ546WR43cqQwrbXMDFnBi6vSJBeif8tPW85a7r7DM961Jvk4hdryZoByEp8GC8HzsqJpRN4FxGM919.71.44s-19.71-.2-19.71-.4B8r3B4p7yhRXuBWLqsQ546WR43cqQwrbXMDFnBi6vSJBeif8tPW85a7r7DM961Jvk4hdryZoByEp8GC8HzsqJpRN4FxGM9: 217.29px 244.48px;" id="elhqjjuh2yy4n" class="animable"></path><path d="M552.93,244.48c0,.24-8.82.44-19.7.4B8r3B4p7yhRXuBWLqsQ546WR43cqQwrbXMDFnBi6vSJBeif8tPW85a7r7DM961Jvk4hdryZoByEp8GC8HzsqJpRN4FxGM9, 99); transform-origin: 533.225px 244.48px;" id="elvnhmqmwjefb" class="animable"></path><path d="M272.4,308.72c0,.24-16.51.4B8r3B4p7yhRXuBWLqsQ546WR43cqQwrbXMDFnBi6vSJBeif8tPW85a7r7DM961Jvk4hdryZoByEp8GC8HzsqJpRN4FxGM9(0, 184, 99); transform-origin: 235.53px 308.72px;" id="el75nlcvx48p5" class="animable"></path><path d="M357.68,308.72c0,.24-16.51.4B8r3B4p7yhRXuBWLqsQ546WR43cqQwrbXMDFnBi6vSJBeif8tPW85a7r7DM961Jvk4hdryZoByEp8GC8HzsqJpRN4FxGM9rgb(224, 224, 224); transform-origin: 320.4B8r3B4p7yhRXuBWLqsQ546WR43cqQwrbXMDFnBi6vSJBeif8tPW85a7r7DM961Jvk4hdryZoByEp8GC8HzsqJpRN4FxGM944-54.34.44s-54.34-.2-54.34-.4B8r3B4p7yhRXuBWLqsQ546WR43cqQwrbXMDFnBi6vSJBeif8tPW85a7r7DM961Jvk4hdryZoByEp8GC8HzsqJpRN4FxGM9origin: 270.75px 324.8px;" id="el4cdzwze96d" class="animable"></path><path d="M325.09,340.4B8r3B4p7yhRXuBWLqsQ546WR43cqQwrbXMDFnBi6vSJBeif8tPW85a7r7DM961Jvk4hdryZoByEp8GC8HzsqJpRN4FxGM9" style="fill: rgb(224, 224, 224); transform-origin: 270.75px 340.4B8r3B4p7yhRXuBWLqsQ546WR43cqQwrbXMDFnBi6vSJBeif8tPW85a7r7DM961Jvk4hdryZoByEp8GC8HzsqJpRN4FxGM9-54.35-.19-54.35-.44,24.33-.4B8r3B4p7yhRXuBWLqsQ546WR43cqQwrbXMDFnBi6vSJBeif8tPW85a7r7DM961Jvk4hdryZoByEp8GC8HzsqJpRN4FxGM927px 357.005px;" id="el5wjmry6e8o8" class="animable"></path><path d="M500.42,357c0,.25-24.33.44-54.33.44s-54.35-.19-54.35-.44,24.33-.4B8r3B4p7yhRXuBWLqsQ546WR43cqQwrbXMDFnBi6vSJBeif8tPW85a7r7DM961Jvk4hdryZoByEp8GC8HzsqJpRN4FxGM908px 357.005px;" id="el7wo2kjscrd6" class="animable"></path><path d="M454.24,324.8c0,.24-24.34.44-54.34.44s-54.34-.2-54.34-.4B8r3B4p7yhRXuBWLqsQ546WR43cqQwrbXMDFnBi6vSJBeif8tPW85a7r7DM961Jvk4hdryZoByEp8GC8HzsqJpRN4FxGM9origin: 399.9px 324.8px;" id="elqv3cyps1v9" class="animable"></path><path d="M514.32,340.4B8r3B4p7yhRXuBWLqsQ546WR43cqQwrbXMDFnBi6vSJBeif8tPW85a7r7DM961Jvk4hdryZoByEp8GC8HzsqJpRN4FxGM9" style="fill: rgb(69, 90, 100); transform-origin: 4B8r3B4p7yhRXuBWLqsQ546WR43cqQwrbXMDFnBi6vSJBeif8tPW85a7r7DM961Jvk4hdryZoByEp8GC8HzsqJpRN4FxGM919.71.44s-19.71-.19-19.71-.44,8.83-.43,19.71-.43S237,356.72,237,357Z" style="fill: rgb(250, 250, 250); transform-origin: 217.29px 357.005px;" id="eluq9mujphibj" class="animable"></path><path d="M552.93,357c0,.25-8.82.4B8r3B4p7yhRXuBWLqsQ546WR43cqQwrbXMDFnBi6vSJBeif8tPW85a7r7DM961Jvk4hdryZoByEp8GC8HzsqJpRN4FxGM90, 184, 99); transform-origin: 533.225px 357.005px;" id="elf1b2hl4oicp" class="animable"></path><path d="M563.4B8r3B4p7yhRXuBWLqsQ546WR43cqQwrbXMDFnBi6vSJBeif8tPW85a7r7DM961Jvk4hdryZoByEp8GC8HzsqJpRN4FxGM9.44,436Z" style="fill: rgb(38, 50, 56); transform-origin: 338.67px 4B8r3B4p7yhRXuBWLqsQ546WR43cqQwrbXMDFnBi6vSJBeif8tPW85a7r7DM961Jvk4hdryZoByEp8GC8HzsqJpRN4FxGM9animable animator-hidden" style="transform-origin: 96.135px 346.475px;"><path d="M97.07,347.83a57.06,57.06,0,0,0-54.4B8r3B4p7yhRXuBWLqsQ546WR43cqQwrbXMDFnBi6vSJBeif8tPW85a7r7DM961Jvk4hdryZoByEp8GC8HzsqJpRN4FxGM9340.601px;" id="el34s3taynwet" class="animable"></path><path d="M78.6,282.43c2.27-16.05-4-34.1-16-45.76-.39,15.9,6.32,33.79,16,4B8r3B4p7yhRXuBWLqsQ546WR43cqQwrbXMDFnBi6vSJBeif8tPW85a7r7DM961Jvk4hdryZoByEp8GC8HzsqJpRN4FxGM9class="animable"></path><path d="M88.21,312.74a85.64,85.64,0,0,0-39.35-37.61,54.08,54.08,0,0,0,39.5,37.78" style="fill: rgb(0, 184, 99); transform-origin: 68.61px 294.02px;" id="elg5n103gj2n6" class="animable"></path><path d="M90.2,318.58c-9.69.28-19.5-.06-28.87-2.54S43,308.79,36.74,301.37a96.45,96.45,0,0,1,53.31,16.27" style="fill: rgb(0, 184, 99); transform-origin: 63.47px 310.016px;" id="el5638nm42vjn" class="animable"></path><path d="M85.28,299.32c4.92-18.4B8r3B4p7yhRXuBWLqsQ546WR43cqQwrbXMDFnBi6vSJBeif8tPW85a7r7DM961Jvk4hdryZoByEp8GC8HzsqJpRN4FxGM9origin: 99.1872px 278.56px;" id="el8b4hivghw8c" class="animable"></path><path d="M121.86,331.12a27.28,27.28,0,0,0-16.58-25.28c.81,9.52,8.29,20.53,16.58,25.28" style="fill: rgb(0, 184, 99); transform-origin: 113.57px 318.4B8r3B4p7yhRXuBWLqsQ546WR43cqQwrbXMDFnBi6vSJBeif8tPW85a7r7DM961Jvk4hdryZoByEp8GC8HzsqJpRN4FxGM964-34.69c-3.35,15.41-12.25,28.24-26.64,34.69" style="fill: rgb(0, 184, 99); transform-origin: 139.4B8r3B4p7yhRXuBWLqsQ546WR43cqQwrbXMDFnBi6vSJBeif8tPW85a7r7DM961Jvk4hdryZoByEp8GC8HzsqJpRN4FxGM9-7.93,14.77-9.44s11.8-1.65,17.76-1.77A41.53,41.53,0,0,1,120,345.31" style="fill: rgb(0, 184, 99); transform-origin: 135.775px 338.644px;" id="elluvy4ltqw7" class="animable"></path><path d="M112.59,382.addr1qyjj76q5vsqsvap2a4j0frftu2av6xzxx97vdajs9wzxj3e99a5pgeqpqe6z4mty7jxjhc46e5vyvvtucmm9q2uyd9rshpxsf3-origin: 140.37px 394.604px;" id="els07vv3cz5k" class="animable"></path><path d="M90.4B8r3B4p7yhRXuBWLqsQ546WR43cqQwrbXMDFnBi6vSJBeif8tPW85a7r7DM961Jvk4hdryZoByEp8GC8HzsqJpRN4FxGM999); transform-origin: 4B8r3B4p7yhRXuBWLqsQ546WR43cqQwrbXMDFnBi6vSJBeif8tPW85a7r7DM961Jvk4hdryZoByEp8GC8HzsqJpRN4FxGM9.28,0,0,1-20.59,30.26,2.34,2.34,0,0,1-1.82.3c-.91-.37-1-1.61-.4B8r3B4p7yhRXuBWLqsQ546WR43cqQwrbXMDFnBi6vSJBeif8tPW85a7r7DM961Jvk4hdryZoByEp8GC8HzsqJpRN4FxGM9 378.589px;" id="elgt4dzxovz9h" class="animable"></path><path d="M68.79,362a30.58,30.58,0,0,1-44.67.23c14.2-1.55,30.58-2.59,44.67-.23" style="fill: rgb(0, 184, 99); transform-origin: 4B8r3B4p7yhRXuBWLqsQ546WR43cqQwrbXMDFnBi6vSJBeif8tPW85a7r7DM961Jvk4hdryZoByEp8GC8HzsqJpRN4FxGM94B8r3B4p7yhRXuBWLqsQ546WR43cqQwrbXMDFnBi6vSJBeif8tPW85a7r7DM961Jvk4hdryZoByEp8GC8HzsqJpRN4FxGM9,8.33,25.4B8r3B4p7yhRXuBWLqsQ546WR43cqQwrbXMDFnBi6vSJBeif8tPW85a7r7DM961Jvk4hdryZoByEp8GC8HzsqJpRN4FxGM995,5.55,1.25,7.66s.57,3.71.74,4.85q.14.79.21,1.26a2.72,2.72,0,0,0,.09.4B8r3B4p7yhRXuBWLqsQ546WR43cqQwrbXMDFnBi6vSJBeif8tPW85a7r7DM961Jvk4hdryZoByEp8GC8HzsqJpRN4FxGM9-.24-1.4B8r3B4p7yhRXuBWLqsQ546WR43cqQwrbXMDFnBi6vSJBeif8tPW85a7r7DM961Jvk4hdryZoByEp8GC8HzsqJpRN4FxGM9,306.6,4B8r3B4p7yhRXuBWLqsQ546WR43cqQwrbXMDFnBi6vSJBeif8tPW85a7r7DM961Jvk4hdryZoByEp8GC8HzsqJpRN4FxGM9-1.81-4.56c-.21-.5-.37-.89-.48-1.18A3,3,0,0,0,66.66,248.4B8r3B4p7yhRXuBWLqsQ546WR43cqQwrbXMDFnBi6vSJBeif8tPW85a7r7DM961Jvk4hdryZoByEp8GC8HzsqJpRN4FxGM9="animable"></path><path d="M144.66,289.11s-.09.07-.25.23l-.68.71c-.59.63-1.4B8r3B4p7yhRXuBWLqsQ546WR43cqQwrbXMDFnBi6vSJBeif8tPW85a7r7DM961Jvk4hdryZoByEp8GC8HzsqJpRN4FxGM9-5.25,24.75-2.4B8r3B4p7yhRXuBWLqsQ546WR43cqQwrbXMDFnBi6vSJBeif8tPW85a7r7DM961Jvk4hdryZoByEp8GC8HzsqJpRN4FxGM9-.2,1a1.05,1.05,0,0,0,0,.33s0-.11.1-.32.15-.56.25-.95l.92-3.67c.77-3.24,1.4B8r3B4p7yhRXuBWLqsQ546WR43cqQwrbXMDFnBi6vSJBeif8tPW85a7r7DM961Jvk4hdryZoByEp8GC8HzsqJpRN4FxGM91,8.59-18.64,108.93,108.93,0,0,1,8.2-11.22c1-1.26,1.4B8r3B4p7yhRXuBWLqsQ546WR43cqQwrbXMDFnBi6vSJBeif8tPW85a7r7DM961Jvk4hdryZoByEp8GC8HzsqJpRN4FxGM9;" id="elummrv9pbgmm" class="animable"></path><path d="M64.55,361.4a1.74,1.74,0,0,0,.51.09l1.4B8r3B4p7yhRXuBWLqsQ546WR43cqQwrbXMDFnBi6vSJBeif8tPW85a7r7DM961Jvk4hdryZoByEp8GC8HzsqJpRN4FxGM9,0,1,9,4,51.22,51.22,0,0,1,8.06,5.6,38.4B8r3B4p7yhRXuBWLqsQ546WR43cqQwrbXMDFnBi6vSJBeif8tPW85a7r7DM961Jvk4hdryZoByEp8GC8HzsqJpRN4FxGM91.24,2l.75,1.27c.18.29.28.44.3.4B8r3B4p7yhRXuBWLqsQ546WR43cqQwrbXMDFnBi6vSJBeif8tPW85a7r7DM961Jvk4hdryZoByEp8GC8HzsqJpRN4FxGM929.72,0,0,0-2.42-2.9,4B8r3B4p7yhRXuBWLqsQ546WR43cqQwrbXMDFnBi6vSJBeif8tPW85a7r7DM961Jvk4hdryZoByEp8GC8HzsqJpRN4FxGM91.17l-1.91-.4B8r3B4p7yhRXuBWLqsQ546WR43cqQwrbXMDFnBi6vSJBeif8tPW85a7r7DM961Jvk4hdryZoByEp8GC8HzsqJpRN4FxGM94Z" style="fill: rgb(38, 50, 56); transform-origin: 4B8r3B4p7yhRXuBWLqsQ546WR43cqQwrbXMDFnBi6vSJBeif8tPW85a7r7DM961Jvk4hdryZoByEp8GC8HzsqJpRN4FxGM90,0,0,1,1L64.4B8r3B4p7yhRXuBWLqsQ546WR43cqQwrbXMDFnBi6vSJBeif8tPW85a7r7DM961Jvk4hdryZoByEp8GC8HzsqJpRN4FxGM9-1-1L84.34,309c-2.48-2.12-5.93-5-9.77-8.2s-7.33-6-9.87-8.08l-3-2.41A6.94,6.94,0,0,0,60.5,289.45Z" style="fill: rgb(38, 50, 56); transform-origin: 74.38px 300.985px;" id="el3vzb4psr8tu" class="animable"></path><path d="M57,308.23c0,.15,7.42,2.47,16.65,5.2s16.77,4.83,16.81,4.69-7.4B8r3B4p7yhRXuBWLqsQ546WR43cqQwrbXMDFnBi6vSJBeif8tPW85a7r7DM961Jvk4hdryZoByEp8GC8HzsqJpRN4FxGM97301px 313.175px;" id="eltlkwww1tmu" class="animable"></path><path d="M84.54,300.75a5.78,5.78,0,0,0,.77-1.07l2-3c1.66-2.52,4-6,6.83-9.63s5.5-6.4B8r3B4p7yhRXuBWLqsQ546WR43cqQwrbXMDFnBi6vSJBeif8tPW85a7r7DM961Jvk4hdryZoByEp8GC8HzsqJpRN4FxGM921-4.4B8r3B4p7yhRXuBWLqsQ546WR43cqQwrbXMDFnBi6vSJBeif8tPW85a7r7DM961Jvk4hdryZoByEp8GC8HzsqJpRN4FxGM975Z" style="fill: rgb(38, 50, 56); transform-origin: 94.675px 287.49px;" id="elz8po5jkw1aa" class="animable"></path><path d="M110.43,311.18a26.69,26.69,0,0,0,1.75,2.4B8r3B4p7yhRXuBWLqsQ546WR43cqQwrbXMDFnBi6vSJBeif8tPW85a7r7DM961Jvk4hdryZoByEp8GC8HzsqJpRN4FxGM9-1.23-3.14c-.85-1.9-2.12-4.48-3.7-7.25s-3.14-5.18-4.34-6.88A17.69,17.69,0,0,0,110.43,311.18Z" style="fill: rgb(38, 50, 56); transform-origin: 116.1px 321.16px;" id="elrmaus7i7wwq" class="animable"></path><path d="M119.29,343.67c0,.07,1.4B8r3B4p7yhRXuBWLqsQ546WR43cqQwrbXMDFnBi6vSJBeif8tPW85a7r7DM961Jvk4hdryZoByEp8GC8HzsqJpRN4FxGM973.3-3,.57a82.77,82.77,0,0,0-18.4B8r3B4p7yhRXuBWLqsQ546WR43cqQwrbXMDFnBi6vSJBeif8tPW85a7r7DM961Jvk4hdryZoByEp8GC8HzsqJpRN4FxGM9); transform-origin: 132.585px 339.021px;" id="elrj5olnfqit9" class="animable"></path><path d="M112.32,382.51s.15.08.4B8r3B4p7yhRXuBWLqsQ546WR43cqQwrbXMDFnBi6vSJBeif8tPW85a7r7DM961Jvk4hdryZoByEp8GC8HzsqJpRN4FxGM917,4.17,2.9a16.14,16.14,0,0,0,1.5,1.11s-.11-.14-.34-.36-.57-.54-1-.92a45,4B8r3B4p7yhRXuBWLqsQ546WR43cqQwrbXMDFnBi6vSJBeif8tPW85a7r7DM961Jvk4hdryZoByEp8GC8HzsqJpRN4FxGM9,0,0,0,112.32,382.51Z" style="fill: rgb(38, 50, 56); transform-origin: 134.205px 391.025px;" id="elv0ckdbycy3" class="animable"></path><path d="M87.1,392.09c.15,0,1-5.21,2-11.68s1.6-11.74,1.45-11.76-1,5.21-2,11.68S87,392.07,87.1,392.09Z" style="fill: rgb(38, 50, 56); transform-origin: 4B8r3B4p7yhRXuBWLqsQ546WR43cqQwrbXMDFnBi6vSJBeif8tPW85a7r7DM961Jvk4hdryZoByEp8GC8HzsqJpRN4FxGM9.72,0,0,0,2.37-2.4B8r3B4p7yhRXuBWLqsQ546WR43cqQwrbXMDFnBi6vSJBeif8tPW85a7r7DM961Jvk4hdryZoByEp8GC8HzsqJpRN4FxGM9.65c-.4B8r3B4p7yhRXuBWLqsQ546WR43cqQwrbXMDFnBi6vSJBeif8tPW85a7r7DM961Jvk4hdryZoByEp8GC8HzsqJpRN4FxGM919A3.65,3.65,0,0,0,60.84,382.56Z" style="fill: rgb(38, 50, 56); transform-origin: 68.92px 372.97px;" id="el3r6nie1ggve" class="animable"></path><polygon points="130.33 406.91 130.33 419.88 127.08 4B8r3B4p7yhRXuBWLqsQ546WR43cqQwrbXMDFnBi6vSJBeif8tPW85a7r7DM961Jvk4hdryZoByEp8GC8HzsqJpRN4FxGM9fill: rgb(0, 184, 99); transform-origin: 102.405px 4B8r3B4p7yhRXuBWLqsQ546WR43cqQwrbXMDFnBi6vSJBeif8tPW85a7r7DM961Jvk4hdryZoByEp8GC8HzsqJpRN4FxGM9: 0.3; transform-origin: 102.405px 4B8r3B4p7yhRXuBWLqsQ546WR43cqQwrbXMDFnBi6vSJBeif8tPW85a7r7DM961Jvk4hdryZoByEp8GC8HzsqJpRN4FxGM9456.28 89.98 456.28 78.81 420.24 74.48 4B8r3B4p7yhRXuBWLqsQ546WR43cqQwrbXMDFnBi6vSJBeif8tPW85a7r7DM961Jvk4hdryZoByEp8GC8HzsqJpRN4FxGM9102.4B8r3B4p7yhRXuBWLqsQ546WR43cqQwrbXMDFnBi6vSJBeif8tPW85a7r7DM961Jvk4hdryZoByEp8GC8HzsqJpRN4FxGM922-.27-11.29-.27-25.22-.27S76.64,420.09,76.64,420.24Z" style="fill: rgb(38, 50, 56); transform-origin: 101.4B8r3B4p7yhRXuBWLqsQ546WR43cqQwrbXMDFnBi6vSJBeif8tPW85a7r7DM961Jvk4hdryZoByEp8GC8HzsqJpRN4FxGM9.64.4B8r3B4p7yhRXuBWLqsQ546WR43cqQwrbXMDFnBi6vSJBeif8tPW85a7r7DM961Jvk4hdryZoByEp8GC8HzsqJpRN4FxGM9,9.92,9.92,0,0,0-1.48-.83c-1-.5-2.39-1.19-4.17-2a150.22,150.22,0,0,0-14.19-5.61,147.14,147.14,0,0,0-14.7-4.11c-1.91-.42-3.4B8r3B4p7yhRXuBWLqsQ546WR43cqQwrbXMDFnBi6vSJBeif8tPW85a7r7DM961Jvk4hdryZoByEp8GC8HzsqJpRN4FxGM978.63px 343.645px;" id="elgf2gmzh3mpc" class="animable"></path><path d="M85.13,4B8r3B4p7yhRXuBWLqsQ546WR43cqQwrbXMDFnBi6vSJBeif8tPW85a7r7DM961Jvk4hdryZoByEp8GC8HzsqJpRN4FxGM9style="fill: rgb(250, 250, 250); transform-origin: 102.4B8r3B4p7yhRXuBWLqsQ546WR43cqQwrbXMDFnBi6vSJBeif8tPW85a7r7DM961Jvk4hdryZoByEp8GC8HzsqJpRN4FxGM9,18.75.27s18.75-.12,18.75-.27-8.39-.27-18.75-.27S84.14,4B8r3B4p7yhRXuBWLqsQ546WR43cqQwrbXMDFnBi6vSJBeif8tPW85a7r7DM961Jvk4hdryZoByEp8GC8HzsqJpRN4FxGM9="els9ll2ij35u" class="animable"></path></g><g id="freepik--Floor--inject-17" class="animable" style="transform-origin: 369px 4B8r3B4p7yhRXuBWLqsQ546WR43cqQwrbXMDFnBi6vSJBeif8tPW85a7r7DM961Jvk4hdryZoByEp8GC8HzsqJpRN4FxGM9,369,4B8r3B4p7yhRXuBWLqsQ546WR43cqQwrbXMDFnBi6vSJBeif8tPW85a7r7DM961Jvk4hdryZoByEp8GC8HzsqJpRN4FxGM94B8r3B4p7yhRXuBWLqsQ546WR43cqQwrbXMDFnBi6vSJBeif8tPW85a7r7DM961Jvk4hdryZoByEp8GC8HzsqJpRN4FxGM9" class="animable" style="transform-origin: 536.655px 189.77px;"><polygon points="616.04 76.13 348.05 76.13 348.05 242.09 573.65 242.09 587.62 274.22 600 242.09 616.04 242.09 616.04 76.13" style="fill: rgb(250, 250, 250); transform-origin: 482.045px 175.175px;" id="ell6t1iwv3ul" class="animable"></polygon><path d="M616,76.12c0,1.61.07,64,.2,166v.2H600l.19-.13c-3.4B8r3B4p7yhRXuBWLqsQ546WR43cqQwrbXMDFnBi6vSJBeif8tPW85a7r7DM961Jvk4hdryZoByEp8GC8HzsqJpRN4FxGM9.79v-.26c0-59.15,0-115.28,0-166v-.23h.24l268,.23-268,.24.24-.24c0,50.69,0,106.4B8r3B4p7yhRXuBWLqsQ546WR43cqQwrbXMDFnBi6vSJBeif8tPW85a7r7DM961Jvk4hdryZoByEp8GC8HzsqJpRN4FxGM9616,77.73,616,76.12Z" style="fill: rgb(38, 50, 56); transform-origin: 481.995px 175.34px;" id="elnjus42wlcys" class="animable"></path><path d="M615.9,92.32c0,.2-59.88.37-133.72.37s-133.73-.17-133.73-.37S408.32,92,482.18,92,615.9,92.12,615.9,92.32Z" style="fill: rgb(38, 50, 56); transform-origin: 4B8r3B4p7yhRXuBWLqsQ546WR43cqQwrbXMDFnBi6vSJBeif8tPW85a7r7DM961Jvk4hdryZoByEp8GC8HzsqJpRN4FxGM91,1-2.19-2.2A2.2,2.2,0,0,1,362.29,4B8r3B4p7yhRXuBWLqsQ546WR43cqQwrbXMDFnBi6vSJBeif8tPW85a7r7DM961Jvk4hdryZoByEp8GC8HzsqJpRN4FxGM9animable"></path><path d="M370.24,85a2.2,2.2,0,1,1-2.19-2.2A2.2,2.2,0,0,1,370.24,4B8r3B4p7yhRXuBWLqsQ546WR43cqQwrbXMDFnBi6vSJBeif8tPW85a7r7DM961Jvk4hdryZoByEp8GC8HzsqJpRN4FxGM9animable"></path><path d="M378.19,85a2.2,2.2,0,1,1-2.2-2.2A2.2,2.2,0,0,1,378.19,4B8r3B4p7yhRXuBWLqsQ546WR43cqQwrbXMDFnBi6vSJBeif8tPW85a7r7DM961Jvk4hdryZoByEp8GC8HzsqJpRN4FxGM9animable"></path><path d="M377.28,122l-6.36,2.46,6.36,2.45v1.49l-8-3.17V123.7l8-3.18Z" style="fill: rgb(38, 50, 56); transform-origin: 373.28px 124.46px;" id="eljf7eh239r" class="animable"></path><path d="M383.9,115.65h1.56l-5.92,16.4B8r3B4p7yhRXuBWLqsQ546WR43cqQwrbXMDFnBi6vSJBeif8tPW85a7r7DM961Jvk4hdryZoByEp8GC8HzsqJpRN4FxGM9class="animable"></path><path d="M394,123.7v1.54l-8,3.17v-1.49l6.38-2.45L386,122v-1.49Z" style="fill: rgb(38, 50, 56); transform-origin: 390px 124.4B8r3B4p7yhRXuBWLqsQ546WR43cqQwrbXMDFnBi6vSJBeif8tPW85a7r7DM961Jvk4hdryZoByEp8GC8HzsqJpRN4FxGM922,1.18,1.18,0,0,1,1.19,1.22,1.2,1.2,0,0,1-1.19,1.24A1.22,1.22,0,0,1,396.06,129.61Z" style="fill: rgb(38, 50, 56); transform-origin: 397.265px 129.62px;" id="el3ssiw42ln21" class="animable"></path><path d="M400.14,129.61a1.19,1.19,0,0,1,1.22-1.22,1.18,1.18,0,0,1,1.18,1.22,1.2,1.2,0,0,1-1.18,1.24A1.21,1.21,0,0,1,400.14,129.61Z" style="fill: rgb(38, 50, 56); transform-origin: 401.34px 129.62px;" id="eljpuy0nhadac" class="animable"></path><path d="M404.21,129.61a1.19,1.19,0,0,1,1.22-1.22,1.18,1.18,0,0,1,1.18,1.22,1.2,1.2,0,0,1-1.18,1.24A1.21,1.21,0,0,1,404.21,129.61Z" style="fill: rgb(38, 50, 56); transform-origin: 405.4B8r3B4p7yhRXuBWLqsQ546WR43cqQwrbXMDFnBi6vSJBeif8tPW85a7r7DM961Jvk4hdryZoByEp8GC8HzsqJpRN4FxGM9-88.4B8r3B4p7yhRXuBWLqsQ546WR43cqQwrbXMDFnBi6vSJBeif8tPW85a7r7DM961Jvk4hdryZoByEp8GC8HzsqJpRN4FxGM990, 100); transform-origin: 4B8r3B4p7yhRXuBWLqsQ546WR43cqQwrbXMDFnBi6vSJBeif8tPW85a7r7DM961Jvk4hdryZoByEp8GC8HzsqJpRN4FxGM98.37-8.5.37s-8.5-.17-8.5-.37,3.4B8r3B4p7yhRXuBWLqsQ546WR43cqQwrbXMDFnBi6vSJBeif8tPW85a7r7DM961Jvk4hdryZoByEp8GC8HzsqJpRN4FxGM9 146.23px;" id="elhzn5zhydmlb" class="animable"></path><path d="M600.25,146.23c0,.2-4.16.37-9.28.37s-9.29-.17-9.29-.37,4.16-.37,9.29-.37S600.25,146,600.25,146.23Z" style="fill: rgb(38, 50, 56); transform-origin: 590.965px 146.23px;" id="el7pwatzcyowb" class="animable"></path><path d="M482.23,160.62c0,.2-25.18.36-56.24.36s-56.23-.16-56.23-.36,25.17-.37,56.23-.37S482.23,160.41,482.23,160.62Z" style="fill: rgb(69, 90, 100); transform-origin: 425.995px 160.615px;" id="el7bt748p0qxd" class="animable"></path><path d="M481.4B8r3B4p7yhRXuBWLqsQ546WR43cqQwrbXMDFnBi6vSJBeif8tPW85a7r7DM961Jvk4hdryZoByEp8GC8HzsqJpRN4FxGM9216.25Z" style="fill: rgb(69, 90, 100); transform-origin: 4B8r3B4p7yhRXuBWLqsQ546WR43cqQwrbXMDFnBi6vSJBeif8tPW85a7r7DM961Jvk4hdryZoByEp8GC8HzsqJpRN4FxGM9.85.36-15.3.36s-15.3-.16-15.3-.36,6.85-.37,15.3-.37S523.09,160.41,523.09,160.62Z" style="fill: rgb(38, 50, 56); transform-origin: 507.79px 160.615px;" id="elwnb6h7ak16" class="animable"></path><path d="M522.77,216.25c0,.2-6.85.36-15.3.36s-15.3-.16-15.3-.36,6.85-.37,15.3-.37S522.77,216.05,522.77,216.25Z" style="fill: rgb(38, 50, 56); transform-origin: 507.4B8r3B4p7yhRXuBWLqsQ546WR43cqQwrbXMDFnBi6vSJBeif8tPW85a7r7DM961Jvk4hdryZoByEp8GC8HzsqJpRN4FxGM93.8.37s-3.79-.17-3.79-.37,1.7-.36,3.79-.36S377.14,168,377.14,168.2Z" style="fill: rgb(0, 184, 99); transform-origin: 373.345px 168.205px;" id="el75wy0uacyeh" class="animable"></path><path d="M403.29,168.36c0,.2-3.69.36-8.24.36s-8.24-.16-8.24-.36,3.69-.37,8.24-.37S403.29,168.16,403.29,168.36Z" style="fill: rgb(38, 50, 56); transform-origin: 395.05px 168.355px;" id="elljx5gv4owdr" class="animable"></path><path d="M420,168.36c0,.2-3.16.36-7.06.36s-7.06-.16-7.06-.36,3.16-.37,7.06-.37S420,168.16,420,168.36Z" style="fill: rgb(38, 50, 56); transform-origin: 412.94px 168.355px;" id="eldimdo1h52z" class="animable"></path><path d="M441.22,168.36c0,.2-3.22.36-7.19.36s-7.2-.16-7.2-.36,3.22-.37,7.2-.37S441.22,168.16,441.22,168.36Z" style="fill: rgb(38, 50, 56); transform-origin: 4B8r3B4p7yhRXuBWLqsQ546WR43cqQwrbXMDFnBi6vSJBeif8tPW85a7r7DM961Jvk4hdryZoByEp8GC8HzsqJpRN4FxGM993.36-6.54.36s-6.54-.16-6.54-.36,2.93-.37,6.54-.37S459.79,168.16,459.79,168.36Z" style="fill: rgb(38, 50, 56); transform-origin: 4B8r3B4p7yhRXuBWLqsQ546WR43cqQwrbXMDFnBi6vSJBeif8tPW85a7r7DM961Jvk4hdryZoByEp8GC8HzsqJpRN4FxGM9.88.36-28.77.36s-28.78-.16-28.78-.36,12.4B8r3B4p7yhRXuBWLqsQ546WR43cqQwrbXMDFnBi6vSJBeif8tPW85a7r7DM961Jvk4hdryZoByEp8GC8HzsqJpRN4FxGM94B8r3B4p7yhRXuBWLqsQ546WR43cqQwrbXMDFnBi6vSJBeif8tPW85a7r7DM961Jvk4hdryZoByEp8GC8HzsqJpRN4FxGM946.37-3.27.37s-3.27-.17-3.27-.37,1.46-.37,3.27-.37S376.09,177.68,376.09,177.88Z" style="fill: rgb(0, 184, 99); transform-origin: 372.4B8r3B4p7yhRXuBWLqsQ546WR43cqQwrbXMDFnBi6vSJBeif8tPW85a7r7DM961Jvk4hdryZoByEp8GC8HzsqJpRN4FxGM9-3.4.37s-3.4-.17-3.4-.37,1.52-.37,3.4-.37S376.35,187.62,376.35,187.82Z" style="fill: rgb(0, 184, 99); transform-origin: 372.95px 187.4B8r3B4p7yhRXuBWLqsQ546WR43cqQwrbXMDFnBi6vSJBeif8tPW85a7r7DM961Jvk4hdryZoByEp8GC8HzsqJpRN4FxGM93.4-.16-3.4-.36,1.52-.37,3.4-.37S376.35,198.86,376.35,199.07Z" style="fill: rgb(0, 184, 99); transform-origin: 372.95px 199.065px;" id="elrdg93tlgi0m" class="animable"></path><path d="M438.34,198.54c0,.21-11.36.37-25.37.37s-25.37-.16-25.37-.37,11.36-.36,25.37-.36S438.34,198.34,438.34,198.54Z" style="fill: rgb(38, 50, 56); transform-origin: 412.97px 198.545px;" id="elqjqjva3mm5" class="animable"></path><path d="M433.9,187.82c0,.2-10.84.37-24.2.37s-24.19-.17-24.19-.37,10.83-.37,24.19-.37S433.9,187.62,433.9,187.82Z" style="fill: rgb(38, 50, 56); transform-origin: 4B8r3B4p7yhRXuBWLqsQ546WR43cqQwrbXMDFnBi6vSJBeif8tPW85a7r7DM961Jvk4hdryZoByEp8GC8HzsqJpRN4FxGM99.36-82.39.36s-82.4-.16-82.4-.36,36.88-.37,82.4-.37S550.82,177.15,550.82,177.36Z" style="fill: rgb(38, 50, 56); transform-origin: 4B8r3B4p7yhRXuBWLqsQ546WR43cqQwrbXMDFnBi6vSJBeif8tPW85a7r7DM961Jvk4hdryZoByEp8GC8HzsqJpRN4FxGM9.5 285.04 610.57 303.33 632.5 303.33 634.66 303.33 725.26 303.33 725.26 144 632.5 144" style="fill: rgb(250, 250, 250); transform-origin: 667.915px 223.665px;" id="el6n3hoqwyjvx" class="animable"></polygon><path d="M632.5,144s.55,0,1.62,0l4.8,0,18.4B8r3B4p7yhRXuBWLqsQ546WR43cqQwrbXMDFnBi6vSJBeif8tPW85a7r7DM961Jvk4hdryZoByEp8GC8HzsqJpRN4FxGM918c.05-4B8r3B4p7yhRXuBWLqsQ546WR43cqQwrbXMDFnBi6vSJBeif8tPW85a7r7DM961Jvk4hdryZoByEp8GC8HzsqJpRN4FxGM9,0-.64,0,.23,0,.67,0,1.1,0,2c0,1.73,0,4.28,0,7.6,0,6.65,0,16.39.06,28.75,0,24.72.06,60,.11,102.06v.1l-.08.07-21.92,18.31-.16-.43,98.61,0h16.08l-.26.26c0-61.16,0-116.76.06-159.33l.2.19-67.75-.1L639,144l-4.4B8r3B4p7yhRXuBWLqsQ546WR43cqQwrbXMDFnBi6vSJBeif8tPW85a7r7DM961Jvk4hdryZoByEp8GC8HzsqJpRN4FxGM9" class="animable"></path><path d="M640.93,151a1.88,1.88,0,1,1-1.88-1.88A1.88,1.88,0,0,1,640.93,151Z" style="fill: rgb(38, 50, 56); transform-origin: 639.05px 151px;" id="el0jskyvnsgcso" class="animable"></path><path d="M647.73,151a1.88,1.88,0,1,1-1.88-1.88A1.88,1.88,0,0,1,647.73,151Z" style="fill: rgb(38, 50, 56); transform-origin: 645.85px 151px;" id="elvz59n0eu1b" class="animable"></path><path d="M654.53,151a1.88,1.88,0,1,1-1.88-1.88A1.88,1.88,0,0,1,654.53,151Z" style="fill: rgb(38, 50, 56); transform-origin: 652.65px 151px;" id="elch60i5ddh6c" class="animable"></path><path d="M699.76,194.47c0,.17-11.76.3-26.26.3s-26.26-.13-26.26-.3,11.75-.3,26.26-.3S699.76,194.3,699.76,194.4B8r3B4p7yhRXuBWLqsQ546WR43cqQwrbXMDFnBi6vSJBeif8tPW85a7r7DM961Jvk4hdryZoByEp8GC8HzsqJpRN4FxGM9="animable"></path><path d="M710.72,207.23c0,.16-14.31.3-32,.3s-32-.14-32-.3,14.31-.3,32-.3S710.72,207.06,710.72,207.23Z" style="fill: rgb(0, 184, 99); transform-origin: 678.72px 207.23px;" id="elmemk6n8zr2" class="animable"></path><path d="M713.32,254.83c0,.17-15.26.3-34.08.3s-34.08-.13-34.08-.3,15.26-.3,34.08-.3S713.32,254.67,713.32,254.83Z" style="fill: rgb(0, 184, 99); transform-origin: 679.24px 254.4B8r3B4p7yhRXuBWLqsQ546WR43cqQwrbXMDFnBi6vSJBeif8tPW85a7r7DM961Jvk4hdryZoByEp8GC8HzsqJpRN4FxGM90,17.7,17.7,0,0,1,6.4B8r3B4p7yhRXuBWLqsQ546WR43cqQwrbXMDFnBi6vSJBeif8tPW85a7r7DM961Jvk4hdryZoByEp8GC8HzsqJpRN4FxGM9class="animable"></path><path d="M674.55,213.85c0,.17-3.16.3-7,.3s-7-.13-7-.3a83,83,0,0,1,14.1,0Z" style="fill: rgb(0, 184, 99); transform-origin: 667.6px 213.85px;" id="eltbks098hmyh" class="animable"></path><path d="M688.87,213.85c0,.17-2.7.3-6,.3s-6.05-.13-6.05-.3a61.05,61.05,0,0,1,12.09,0Z" style="fill: rgb(0, 184, 99); transform-origin: 682.4B8r3B4p7yhRXuBWLqsQ546WR43cqQwrbXMDFnBi6vSJBeif8tPW85a7r7DM961Jvk4hdryZoByEp8GC8HzsqJpRN4FxGM90,1-5.6,0,13.22,13.22,0,0,1,5.6,0Z" style="fill: rgb(0, 184, 99); transform-origin: 648.4B8r3B4p7yhRXuBWLqsQ546WR43cqQwrbXMDFnBi6vSJBeif8tPW85a7r7DM961Jvk4hdryZoByEp8GC8HzsqJpRN4FxGM9,1-5.82,0,13.4B8r3B4p7yhRXuBWLqsQ546WR43cqQwrbXMDFnBi6vSJBeif8tPW85a7r7DM961Jvk4hdryZoByEp8GC8HzsqJpRN4FxGM9="elyh58vhd37w" class="animable"></path><path d="M651.49,240.13a14.26,14.26,0,0,1-5.82,0,14.26,14.26,0,0,1,5.82,0Z" style="fill: rgb(0, 184, 99); transform-origin: 648.58px 240.13px;" id="el07p0p1kx9d6" class="animable"></path><path d="M704.54,239.68c0,.17-9.72.3-21.71.3s-21.71-.13-21.71-.3,9.72-.3,21.71-.3S704.54,239.52,704.54,239.68Z" style="fill: rgb(0, 184, 99); transform-origin: 682.4B8r3B4p7yhRXuBWLqsQ546WR43cqQwrbXMDFnBi6vSJBeif8tPW85a7r7DM961Jvk4hdryZoByEp8GC8HzsqJpRN4FxGM9-20.7.3s-20.7-.14-20.7-.3,9.26-.31,20.7-.31S700.73,230.34,700.73,230.51Z" style="fill: rgb(0, 184, 99); transform-origin: 680.03px 230.505px;" id="eli64go9u7gte" class="animable"></path><path d="M655.73,267.54a14.26,14.26,0,0,1-5.82,0,14.26,14.26,0,0,1,5.82,0Z" style="fill: rgb(0, 184, 99); transform-origin: 652.4B8r3B4p7yhRXuBWLqsQ546WR43cqQwrbXMDFnBi6vSJBeif8tPW85a7r7DM961Jvk4hdryZoByEp8GC8HzsqJpRN4FxGM9,0,1-5.82,0,13.4B8r3B4p7yhRXuBWLqsQ546WR43cqQwrbXMDFnBi6vSJBeif8tPW85a7r7DM961Jvk4hdryZoByEp8GC8HzsqJpRN4FxGM9="elbxgqf7k7f0r" class="animable"></path><path d="M708.78,276.72c0,.16-9.72.3-21.71.3s-21.71-.14-21.71-.3,9.71-.3,21.71-.3S708.78,276.55,708.78,276.72Z" style="fill: rgb(0, 184, 99); transform-origin: 687.07px 276.72px;" id="el8q1lmx7quge" class="animable"></path><path d="M705,267.54c0,.17-9.27.3-20.7.3s-20.71-.13-20.71-.3,9.27-.3,20.71-.3S705,267.37,705,267.54Z" style="fill: rgb(0, 184, 99); transform-origin: 684.295px 267.54px;" id="elkf7qhbpuon" class="animable"></path><path d="M716.13,221.55c0,.17-12.62.3-28.18.3s-28.18-.13-28.18-.3,12.62-.3,28.18-.3S716.13,221.39,716.13,221.55Z" style="fill: rgb(0, 184, 99); transform-origin: 687.95px 221.55px;" id="elpyg0q1cwoc" class="animable"></path><path d="M724.39,158.38c0,.16-20.37.3-4B8r3B4p7yhRXuBWLqsQ546WR43cqQwrbXMDFnBi6vSJBeif8tPW85a7r7DM961Jvk4hdryZoByEp8GC8HzsqJpRN4FxGM9, 50, 56); transform-origin: 678.9px 158.38px;" id="elgb1cyknlla7" class="animable"></path><path d="M666.43,186.78a154.07,154.07,0,0,1-19.22,0c0-.17,4.3-.3,9.61-.3S666.43,186.61,666.43,186.78Z" style="fill: rgb(0, 184, 99); transform-origin: 656.4B8r3B4p7yhRXuBWLqsQ546WR43cqQwrbXMDFnBi6vSJBeif8tPW85a7r7DM961Jvk4hdryZoByEp8GC8HzsqJpRN4FxGM9.53.3s-4.53-.13-4.53-.3a34.35,34.35,0,0,1,9.06,0Z" style="fill: rgb(0, 184, 99); transform-origin: 651.02px 169.37px;" id="ell38a70c8kuj" class="animable"></path></g><g id="freepik--Character--inject-17" class="animable" style="transform-origin: 553.763px 327.63px;"><path d="M575.27,374.76l20.14-19.91-35.92-61.51a34.66,34.66,0,0,0-13.78-9.59l-12.65-4.4B8r3B4p7yhRXuBWLqsQ546WR43cqQwrbXMDFnBi6vSJBeif8tPW85a7r7DM961Jvk4hdryZoByEp8GC8HzsqJpRN4FxGM9-36.92Z" style="fill: rgb(0, 184, 99); transform-origin: 533.118px 341.165px;" id="elrkk77d02la" class="animable"></path><path d="M553.91,369.82c.19,0,.24-12.79.11-28.56s-.38-28.56-.57-28.56-.24,12.79-.11,28.56S553.72,369.82,553.91,369.82Z" style="fill: rgb(38, 50, 56); transform-origin: 553.68px 341.26px;" id="elxtf5nxzhdt9" class="animable"></path><path d="M550.94,379.2l-4B8r3B4p7yhRXuBWLqsQ546WR43cqQwrbXMDFnBi6vSJBeif8tPW85a7r7DM961Jvk4hdryZoByEp8GC8HzsqJpRN4FxGM9,313.32c1.77,14.66,2.51,35.41,4.5,48.14,1.63,10.41,7.88,18.64,17.78,22.25l60.38,13.07Z" style="fill: rgb(0, 184, 99); transform-origin: 506.308px 339.355px;" id="elp0wve7degcq" class="animable"></path><path d="M492.05,310.1a7.4B8r3B4p7yhRXuBWLqsQ546WR43cqQwrbXMDFnBi6vSJBeif8tPW85a7r7DM961Jvk4hdryZoByEp8GC8HzsqJpRN4FxGM927,3.22.4B8r3B4p7yhRXuBWLqsQ546WR43cqQwrbXMDFnBi6vSJBeif8tPW85a7r7DM961Jvk4hdryZoByEp8GC8HzsqJpRN4FxGM9,26,10.68,35,14.07l10.74,4,2.92,1.07a5.79,5.79,0,0,1,1,.42,7.52,7.52,0,0,1-1-.29l-3-1c-2.57-.4B8r3B4p7yhRXuBWLqsQ546WR43cqQwrbXMDFnBi6vSJBeif8tPW85a7r7DM961Jvk4hdryZoByEp8GC8HzsqJpRN4FxGM91-2.61-4.73,37.2,37.2,0,0,1-.62-5.12q-.21-2.5-.39-4.89c-.5-6.36-.94-12.09-1.32-16.93s-.62-8.65-.83-11.4B8r3B4p7yhRXuBWLqsQ546WR43cqQwrbXMDFnBi6vSJBeif8tPW85a7r7DM961Jvk4hdryZoByEp8GC8HzsqJpRN4FxGM9origin: 522.322px 344.67px;" id="el3bxt6owysjn" class="animable"></path><path d="M464,335.65a1.4B8r3B4p7yhRXuBWLqsQ546WR43cqQwrbXMDFnBi6vSJBeif8tPW85a7r7DM961Jvk4hdryZoByEp8GC8HzsqJpRN4FxGM90,0,0,2.22,11.91,17.56,17.56,0,0,0,2.39,5.67,32.4B8r3B4p7yhRXuBWLqsQ546WR43cqQwrbXMDFnBi6vSJBeif8tPW85a7r7DM961Jvk4hdryZoByEp8GC8HzsqJpRN4FxGM9-.64,0,13.08,13.08,0,0,1-1.4B8r3B4p7yhRXuBWLqsQ546WR43cqQwrbXMDFnBi6vSJBeif8tPW85a7r7DM961Jvk4hdryZoByEp8GC8HzsqJpRN4FxGM9.16,0,0,1-2.5-5.4B8r3B4p7yhRXuBWLqsQ546WR43cqQwrbXMDFnBi6vSJBeif8tPW85a7r7DM961Jvk4hdryZoByEp8GC8HzsqJpRN4FxGM958,2.58,0,0,1,464,335.65Z" style="fill: rgb(38, 50, 56); transform-origin: 477.3px 360.539px;" id="el97ay223peu6" class="animable"></path><path d="M484.93,368.54a7.13,7.13,0,0,1,.4B8r3B4p7yhRXuBWLqsQ546WR43cqQwrbXMDFnBi6vSJBeif8tPW85a7r7DM961Jvk4hdryZoByEp8GC8HzsqJpRN4FxGM90,0-5.56,3.3,19.29,19.29,0,0,0-4.13,5C485.39,367.59,485,368.57,484.93,368.54Z" style="fill: rgb(38, 50, 56); transform-origin: 491.705px 362.749px;" id="el6bjb3ayjvj2" class="animable"></path><g id="elvc2pa26efu"><g style="opacity: 0.3; transform-origin: 515.25px 348.4B8r3B4p7yhRXuBWLqsQ546WR43cqQwrbXMDFnBi6vSJBeif8tPW85a7r7DM961Jvk4hdryZoByEp8GC8HzsqJpRN4FxGM9-10.52c-6.77-9.12-6-22.28-12.92-31.28L495,342.22c.42,5.55-.43,11,3.14,14.8,3,3.17,8.88,5.61,13,7,8.35,2.75,17.34,6.84,25.68,9.6" id="elevacrlmqcae" class="animable" style="transform-origin: 515.25px 348.4B8r3B4p7yhRXuBWLqsQ546WR43cqQwrbXMDFnBi6vSJBeif8tPW85a7r7DM961Jvk4hdryZoByEp8GC8HzsqJpRN4FxGM9 334.91 553.45 316.16" style="opacity: 0.3; transform-origin: 555.57px 329.24px;" class="animable"></polygon></g><path d="M490.57,300a4.25,4.25,0,0,1-1.13.09l-3.1.08c-2.61.07-6.21.2-10.18.48s-7.55.67-10.15,1l-3.07.36a5.6,5.6,0,0,1-1.13.08,4,4,0,0,1,1.1-.28c.72-.15,1.76-.33,3-.53,2.59-.4,6.18-.84,10.16-1.13s7.6-.36,10.22-.33c1.31,0,2.37.05,3.1.09A5.46,5.46,0,0,1,490.57,300Z" style="fill: rgb(69, 90, 100); transform-origin: 4B8r3B4p7yhRXuBWLqsQ546WR43cqQwrbXMDFnBi6vSJBeif8tPW85a7r7DM961Jvk4hdryZoByEp8GC8HzsqJpRN4FxGM9.79-14.35,1.4B8r3B4p7yhRXuBWLqsQ546WR43cqQwrbXMDFnBi6vSJBeif8tPW85a7r7DM961Jvk4hdryZoByEp8GC8HzsqJpRN4FxGM9); transform-origin: 4B8r3B4p7yhRXuBWLqsQ546WR43cqQwrbXMDFnBi6vSJBeif8tPW85a7r7DM961Jvk4hdryZoByEp8GC8HzsqJpRN4FxGM9.35,0,0,1-1,.58c-.67.35-1.65.4B8r3B4p7yhRXuBWLqsQ546WR43cqQwrbXMDFnBi6vSJBeif8tPW85a7r7DM961Jvk4hdryZoByEp8GC8HzsqJpRN4FxGM95.73,0,0,1,1.16-.11c.75,0,1.4B8r3B4p7yhRXuBWLqsQ546WR43cqQwrbXMDFnBi6vSJBeif8tPW85a7r7DM961Jvk4hdryZoByEp8GC8HzsqJpRN4FxGM9,0,0,1,494.33,351.37Z" style="fill: rgb(69, 90, 100); transform-origin: 4B8r3B4p7yhRXuBWLqsQ546WR43cqQwrbXMDFnBi6vSJBeif8tPW85a7r7DM961Jvk4hdryZoByEp8GC8HzsqJpRN4FxGM9.72,0,0,0-4.4B8r3B4p7yhRXuBWLqsQ546WR43cqQwrbXMDFnBi6vSJBeif8tPW85a7r7DM961Jvk4hdryZoByEp8GC8HzsqJpRN4FxGM9511.76,364.4B8r3B4p7yhRXuBWLqsQ546WR43cqQwrbXMDFnBi6vSJBeif8tPW85a7r7DM961Jvk4hdryZoByEp8GC8HzsqJpRN4FxGM9class="animable"></path><path d="M529.49,382.19a19.05,19.05,0,0,1,5.24-9.56c.12.1-1.42,2-2.86,4.65S529.64,382.24,529.49,382.19Z" style="fill: rgb(69, 90, 100); transform-origin: 532.113px 377.4B8r3B4p7yhRXuBWLqsQ546WR43cqQwrbXMDFnBi6vSJBeif8tPW85a7r7DM961Jvk4hdryZoByEp8GC8HzsqJpRN4FxGM9,1.52,48.7,4B8r3B4p7yhRXuBWLqsQ546WR43cqQwrbXMDFnBi6vSJBeif8tPW85a7r7DM961Jvk4hdryZoByEp8GC8HzsqJpRN4FxGM9, 100); transform-origin: 494.585px 286.56px;" id="elxmirdnwknkk" class="animable"></path><path d="M548.4B8r3B4p7yhRXuBWLqsQ546WR43cqQwrbXMDFnBi6vSJBeif8tPW85a7r7DM961Jvk4hdryZoByEp8GC8HzsqJpRN4FxGM9,90.79,0,0,1,548.48,287.44Z" style="fill: rgb(69, 90, 100); transform-origin: 538.4B8r3B4p7yhRXuBWLqsQ546WR43cqQwrbXMDFnBi6vSJBeif8tPW85a7r7DM961Jvk4hdryZoByEp8GC8HzsqJpRN4FxGM90,1-.61,0l-1.76,0h-6.4B8r3B4p7yhRXuBWLqsQ546WR43cqQwrbXMDFnBi6vSJBeif8tPW85a7r7DM961Jvk4hdryZoByEp8GC8HzsqJpRN4FxGM90,1,.61-.09l1.75-.18c1.52-.14,3.72-.31,6.4B8r3B4p7yhRXuBWLqsQ546WR43cqQwrbXMDFnBi6vSJBeif8tPW85a7r7DM961Jvk4hdryZoByEp8GC8HzsqJpRN4FxGM9,552.48,309.26Z" style="fill: rgb(69, 90, 100); transform-origin: 522.32px 309.4B8r3B4p7yhRXuBWLqsQ546WR43cqQwrbXMDFnBi6vSJBeif8tPW85a7r7DM961Jvk4hdryZoByEp8GC8HzsqJpRN4FxGM9,2.15s-28.75,1.77-28.76,1.63,12.85-1.11,28.72-2.15S553.05,336.76,553.06,336.91Z" style="fill: rgb(69, 90, 100); transform-origin: 524.32px 338.799px;" id="elactm49h14m" class="animable"></path><path d="M551.69,361.26a5.76,5.76,0,0,1-1.08.4B8r3B4p7yhRXuBWLqsQ546WR43cqQwrbXMDFnBi6vSJBeif8tPW85a7r7DM961Jvk4hdryZoByEp8GC8HzsqJpRN4FxGM9.4B8r3B4p7yhRXuBWLqsQ546WR43cqQwrbXMDFnBi6vSJBeif8tPW85a7r7DM961Jvk4hdryZoByEp8GC8HzsqJpRN4FxGM9.95,10.18-2.7l3.07-.89A4.64,4.64,0,0,1,551.69,361.26Z" style="fill: rgb(69, 90, 100); transform-origin: 537.215px 364.721px;" id="eld8hz1jnk9pe" class="animable"></path><path d="M572.26,317.12a89.4B8r3B4p7yhRXuBWLqsQ546WR43cqQwrbXMDFnBi6vSJBeif8tPW85a7r7DM961Jvk4hdryZoByEp8GC8HzsqJpRN4FxGM90,1,572.26,317.12Z" style="fill: rgb(69, 90, 100); transform-origin: 562.4B8r3B4p7yhRXuBWLqsQ546WR43cqQwrbXMDFnBi6vSJBeif8tPW85a7r7DM961Jvk4hdryZoByEp8GC8HzsqJpRN4FxGM9,0,0,1-4.13,1,17.61,17.61,0,0,1-4.24.5,18,18,0,0,1,4.14-1A17.55,17.55,0,0,1,562.45,298.43Z" style="fill: rgb(69, 90, 100); transform-origin: 558.265px 299.18px;" id="ellc12v83ipv" class="animable"></path><path d="M492.2,304.23c-.1,0-.26-1.66-1.17-4.17a21.11,21.11,0,0,0-14.4B8r3B4p7yhRXuBWLqsQ546WR43cqQwrbXMDFnBi6vSJBeif8tPW85a7r7DM961Jvk4hdryZoByEp8GC8HzsqJpRN4FxGM9.34,0,0,1,15.12,13.59,17.14,17.14,0,0,1,.74,3.12A4.3,4.3,0,0,1,492.2,304.23Z" style="fill: rgb(38, 50, 56); transform-origin: 4B8r3B4p7yhRXuBWLqsQ546WR43cqQwrbXMDFnBi6vSJBeif8tPW85a7r7DM961Jvk4hdryZoByEp8GC8HzsqJpRN4FxGM932,0,0,1,1.73,9.14,4B8r3B4p7yhRXuBWLqsQ546WR43cqQwrbXMDFnBi6vSJBeif8tPW85a7r7DM961Jvk4hdryZoByEp8GC8HzsqJpRN4FxGM9fill: rgb(38, 50, 56); transform-origin: 552.07px 300.085px;" id="eldl7fcojw5lr" class="animable"></path><path d="M605.24,4B8r3B4p7yhRXuBWLqsQ546WR43cqQwrbXMDFnBi6vSJBeif8tPW85a7r7DM961Jvk4hdryZoByEp8GC8HzsqJpRN4FxGM94.31Z" style="fill: rgb(0, 184, 99); transform-origin: 621.206px 4B8r3B4p7yhRXuBWLqsQ546WR43cqQwrbXMDFnBi6vSJBeif8tPW85a7r7DM961Jvk4hdryZoByEp8GC8HzsqJpRN4FxGM9-4s2.78-3.32,2.66-3.47-1.94.92-3.21,3.15S620.78,4B8r3B4p7yhRXuBWLqsQ546WR43cqQwrbXMDFnBi6vSJBeif8tPW85a7r7DM961Jvk4hdryZoByEp8GC8HzsqJpRN4FxGM9="ele1ss5ze61ka" class="animable"></path><path d="M617,450.88c.18,0,.56-1.75,1.57-3.72s2.19-3.34,2-3.47a7.18,7.18,0,0,0-2.62,3.19C617,449,616.85,450.87,617,4B8r3B4p7yhRXuBWLqsQ546WR43cqQwrbXMDFnBi6vSJBeif8tPW85a7r7DM961Jvk4hdryZoByEp8GC8HzsqJpRN4FxGM9" class="animable"></path><path d="M613.32,449.9c.19,0,0-1.9.88-4s2.19-3.38,2.06-3.52-1.77,1-2.64,3.3S613.17,450,613.32,4B8r3B4p7yhRXuBWLqsQ546WR43cqQwrbXMDFnBi6vSJBeif8tPW85a7r7DM961Jvk4hdryZoByEp8GC8HzsqJpRN4FxGM9" class="animable"></path><path d="M614,4B8r3B4p7yhRXuBWLqsQ546WR43cqQwrbXMDFnBi6vSJBeif8tPW85a7r7DM961Jvk4hdryZoByEp8GC8HzsqJpRN4FxGM90,0-.6-.92,1,1,0,0,0-1.29.06,1.67,1.67,0,0,0-.51,1.07,8.45,8.4B8r3B4p7yhRXuBWLqsQ546WR43cqQwrbXMDFnBi6vSJBeif8tPW85a7r7DM961Jvk4hdryZoByEp8GC8HzsqJpRN4FxGM9-.06-.54-.94-1.3-2.4B8r3B4p7yhRXuBWLqsQ546WR43cqQwrbXMDFnBi6vSJBeif8tPW85a7r7DM961Jvk4hdryZoByEp8GC8HzsqJpRN4FxGM9.5,0,0,1,.41.66,13.07,13.07,0,0,1,.57,1.66,14.94,14.94,0,0,1,.5,2.94C614.06,4B8r3B4p7yhRXuBWLqsQ546WR43cqQwrbXMDFnBi6vSJBeif8tPW85a7r7DM961Jvk4hdryZoByEp8GC8HzsqJpRN4FxGM9id="elxm6y0t2ckah" class="animable"></path><path d="M614,4B8r3B4p7yhRXuBWLqsQ546WR43cqQwrbXMDFnBi6vSJBeif8tPW85a7r7DM961Jvk4hdryZoByEp8GC8HzsqJpRN4FxGM972,1.86,1.4B8r3B4p7yhRXuBWLqsQ546WR43cqQwrbXMDFnBi6vSJBeif8tPW85a7r7DM961Jvk4hdryZoByEp8GC8HzsqJpRN4FxGM94,16.4,0,0,0-2,1.36,6.62,6.62,0,0,1-2.31,1,2.4B8r3B4p7yhRXuBWLqsQ546WR43cqQwrbXMDFnBi6vSJBeif8tPW85a7r7DM961Jvk4hdryZoByEp8GC8HzsqJpRN4FxGM9,0,1,2.54-.44C613,4B8r3B4p7yhRXuBWLqsQ546WR43cqQwrbXMDFnBi6vSJBeif8tPW85a7r7DM961Jvk4hdryZoByEp8GC8HzsqJpRN4FxGM9275px;" id="el8de6tthdq5n" class="animable"></path><path d="M626.73,453.07c.18,0,0-1.63.74-3.4s2-2.81,1.4B8r3B4p7yhRXuBWLqsQ546WR43cqQwrbXMDFnBi6vSJBeif8tPW85a7r7DM961Jvk4hdryZoByEp8GC8HzsqJpRN4FxGM9-origin: 627.4B8r3B4p7yhRXuBWLqsQ546WR43cqQwrbXMDFnBi6vSJBeif8tPW85a7r7DM961Jvk4hdryZoByEp8GC8HzsqJpRN4FxGM90,0,0,1.45.68,31.53,31.53,0,0,0,4.2,1.3,59.68,59.68,0,0,0,14.38,1.36c5.65-.06,10.74-.31,14.4B8r3B4p7yhRXuBWLqsQ546WR43cqQwrbXMDFnBi6vSJBeif8tPW85a7r7DM961Jvk4hdryZoByEp8GC8HzsqJpRN4FxGM9,0,1-14.29-1.16C602.58,455.62,600.4B8r3B4p7yhRXuBWLqsQ546WR43cqQwrbXMDFnBi6vSJBeif8tPW85a7r7DM961Jvk4hdryZoByEp8GC8HzsqJpRN4FxGM9id="elavcfe5bhrgh" class="animable"></path><path d="M599.32,455.67c0,.08,1.08-.52,2.4B8r3B4p7yhRXuBWLqsQ546WR43cqQwrbXMDFnBi6vSJBeif8tPW85a7r7DM961Jvk4hdryZoByEp8GC8HzsqJpRN4FxGM968,11.68,0,0,0-1.4B8r3B4p7yhRXuBWLqsQ546WR43cqQwrbXMDFnBi6vSJBeif8tPW85a7r7DM961Jvk4hdryZoByEp8GC8HzsqJpRN4FxGM932,4B8r3B4p7yhRXuBWLqsQ546WR43cqQwrbXMDFnBi6vSJBeif8tPW85a7r7DM961Jvk4hdryZoByEp8GC8HzsqJpRN4FxGM9" class="animable"></path><path d="M560.65,4B8r3B4p7yhRXuBWLqsQ546WR43cqQwrbXMDFnBi6vSJBeif8tPW85a7r7DM961Jvk4hdryZoByEp8GC8HzsqJpRN4FxGM9.4B8r3B4p7yhRXuBWLqsQ546WR43cqQwrbXMDFnBi6vSJBeif8tPW85a7r7DM961Jvk4hdryZoByEp8GC8HzsqJpRN4FxGM9el79mbyzf946p" class="animable"></path><path d="M550.06,448c.15,0-.48-2.09-2.39-3.81s-4-2.19-4-2,1.4B8r3B4p7yhRXuBWLqsQ546WR43cqQwrbXMDFnBi6vSJBeif8tPW85a7r7DM961Jvk4hdryZoByEp8GC8HzsqJpRN4FxGM94B8r3B4p7yhRXuBWLqsQ546WR43cqQwrbXMDFnBi6vSJBeif8tPW85a7r7DM961Jvk4hdryZoByEp8GC8HzsqJpRN4FxGM9-1.4B8r3B4p7yhRXuBWLqsQ546WR43cqQwrbXMDFnBi6vSJBeif8tPW85a7r7DM961Jvk4hdryZoByEp8GC8HzsqJpRN4FxGM9, 50, 56); transform-origin: 550.4B8r3B4p7yhRXuBWLqsQ546WR43cqQwrbXMDFnBi6vSJBeif8tPW85a7r7DM961Jvk4hdryZoByEp8GC8HzsqJpRN4FxGM9.56-3.92s-3.48-2.4B8r3B4p7yhRXuBWLqsQ546WR43cqQwrbXMDFnBi6vSJBeif8tPW85a7r7DM961Jvk4hdryZoByEp8GC8HzsqJpRN4FxGM9-origin: 553.959px 4B8r3B4p7yhRXuBWLqsQ546WR43cqQwrbXMDFnBi6vSJBeif8tPW85a7r7DM961Jvk4hdryZoByEp8GC8HzsqJpRN4FxGM967a15.59,15.59,0,0,1-.4B8r3B4p7yhRXuBWLqsQ546WR43cqQwrbXMDFnBi6vSJBeif8tPW85a7r7DM961Jvk4hdryZoByEp8GC8HzsqJpRN4FxGM9,8.08,0,0,1,.35,1.69,12.35,12.35,0,0,1-.09,3c-.25,1.69-.58,2.72-.4B8r3B4p7yhRXuBWLqsQ546WR43cqQwrbXMDFnBi6vSJBeif8tPW85a7r7DM961Jvk4hdryZoByEp8GC8HzsqJpRN4FxGM9,0,0-.35-.93,1.66,1.66,0,0,0-.8-.4B8r3B4p7yhRXuBWLqsQ546WR43cqQwrbXMDFnBi6vSJBeif8tPW85a7r7DM961Jvk4hdryZoByEp8GC8HzsqJpRN4FxGM9.54,6.54,0,0,0,554.36,4B8r3B4p7yhRXuBWLqsQ546WR43cqQwrbXMDFnBi6vSJBeif8tPW85a7r7DM961Jvk4hdryZoByEp8GC8HzsqJpRN4FxGM9" class="animable"></path><path d="M554.28,4B8r3B4p7yhRXuBWLqsQ546WR43cqQwrbXMDFnBi6vSJBeif8tPW85a7r7DM961Jvk4hdryZoByEp8GC8HzsqJpRN4FxGM9,1.3,0,0,1-.6,1.14,3,3,0,0,1-1.33.4B8r3B4p7yhRXuBWLqsQ546WR43cqQwrbXMDFnBi6vSJBeif8tPW85a7r7DM961Jvk4hdryZoByEp8GC8HzsqJpRN4FxGM92.69.4B8r3B4p7yhRXuBWLqsQ546WR43cqQwrbXMDFnBi6vSJBeif8tPW85a7r7DM961Jvk4hdryZoByEp8GC8HzsqJpRN4FxGM9.64-.07,11,11,0,0,0-2.65.5A5.46,5.4B8r3B4p7yhRXuBWLqsQ546WR43cqQwrbXMDFnBi6vSJBeif8tPW85a7r7DM961Jvk4hdryZoByEp8GC8HzsqJpRN4FxGM9id="elr1opdruxy4" class="animable"></path><path d="M531.4B8r3B4p7yhRXuBWLqsQ546WR43cqQwrbXMDFnBi6vSJBeif8tPW85a7r7DM961Jvk4hdryZoByEp8GC8HzsqJpRN4FxGM9,0-1.21-1.3,2.19,2.19,0,0,0-1.14-.4B8r3B4p7yhRXuBWLqsQ546WR43cqQwrbXMDFnBi6vSJBeif8tPW85a7r7DM961Jvk4hdryZoByEp8GC8HzsqJpRN4FxGM9.56,5.56,0,0,1,.78,3.4B8r3B4p7yhRXuBWLqsQ546WR43cqQwrbXMDFnBi6vSJBeif8tPW85a7r7DM961Jvk4hdryZoByEp8GC8HzsqJpRN4FxGM94B8r3B4p7yhRXuBWLqsQ546WR43cqQwrbXMDFnBi6vSJBeif8tPW85a7r7DM961Jvk4hdryZoByEp8GC8HzsqJpRN4FxGM925-3.42s-3.13-2-3.14-1.84,1.44.76,2.65,2.25S544.48,4B8r3B4p7yhRXuBWLqsQ546WR43cqQwrbXMDFnBi6vSJBeif8tPW85a7r7DM961Jvk4hdryZoByEp8GC8HzsqJpRN4FxGM9eljka2hqb1ebq" class="animable"></path><path d="M570.24,4B8r3B4p7yhRXuBWLqsQ546WR43cqQwrbXMDFnBi6vSJBeif8tPW85a7r7DM961Jvk4hdryZoByEp8GC8HzsqJpRN4FxGM95.73,1.95-8.93,2.88-6.42,1.85-12.23,3.54-16.4B8r3B4p7yhRXuBWLqsQ546WR43cqQwrbXMDFnBi6vSJBeif8tPW85a7r7DM961Jvk4hdryZoByEp8GC8HzsqJpRN4FxGM9.4B8r3B4p7yhRXuBWLqsQ546WR43cqQwrbXMDFnBi6vSJBeif8tPW85a7r7DM961Jvk4hdryZoByEp8GC8HzsqJpRN4FxGM9,0,0,570.24,4B8r3B4p7yhRXuBWLqsQ546WR43cqQwrbXMDFnBi6vSJBeif8tPW85a7r7DM961Jvk4hdryZoByEp8GC8HzsqJpRN4FxGM9" class="animable"></path><path d="M571.56,4B8r3B4p7yhRXuBWLqsQ546WR43cqQwrbXMDFnBi6vSJBeif8tPW85a7r7DM961Jvk4hdryZoByEp8GC8HzsqJpRN4FxGM968,11.68,0,0,0-1,3,22.07,22.07,0,0,0,1.39-2.77c.85-1.66,2.19-4.09,4.76-5.37a13.2,13.2,0,0,1,7.16-1C570.38,444.14,571.54,4B8r3B4p7yhRXuBWLqsQ546WR43cqQwrbXMDFnBi6vSJBeif8tPW85a7r7DM961Jvk4hdryZoByEp8GC8HzsqJpRN4FxGM9elsw603g68pvq" class="animable"></path><path d="M634.77,371.16S645.4B8r3B4p7yhRXuBWLqsQ546WR43cqQwrbXMDFnBi6vSJBeif8tPW85a7r7DM961Jvk4hdryZoByEp8GC8HzsqJpRN4FxGM9" style="fill: rgb(38, 50, 56); transform-origin: 589.4B8r3B4p7yhRXuBWLqsQ546WR43cqQwrbXMDFnBi6vSJBeif8tPW85a7r7DM961Jvk4hdryZoByEp8GC8HzsqJpRN4FxGM9,0,0,1.61-1.09c1-.73,2.46-1.83,4.24-3.2,3.54-2.73,8.36-6.62,13.55-11.07s9.75-8.63,13-11.72c1.62-1.54,2.92-2.4B8r3B4p7yhRXuBWLqsQ546WR43cqQwrbXMDFnBi6vSJBeif8tPW85a7r7DM961Jvk4hdryZoByEp8GC8HzsqJpRN4FxGM9-13.11,11.57s-9.94,8.38-13.41,11.21L570,4B8r3B4p7yhRXuBWLqsQ546WR43cqQwrbXMDFnBi6vSJBeif8tPW85a7r7DM961Jvk4hdryZoByEp8GC8HzsqJpRN4FxGM9 398.4B8r3B4p7yhRXuBWLqsQ546WR43cqQwrbXMDFnBi6vSJBeif8tPW85a7r7DM961Jvk4hdryZoByEp8GC8HzsqJpRN4FxGM955c-3.23.94-5.4,2.66-5.3,2.78s2.36-1.27,5.4B8r3B4p7yhRXuBWLqsQ546WR43cqQwrbXMDFnBi6vSJBeif8tPW85a7r7DM961Jvk4hdryZoByEp8GC8HzsqJpRN4FxGM9381.334px;" id="elzwbyocqzhzb" class="animable"></path><path d="M612,376.12a7.59,7.59,0,0,0-3.66,2.76c-1.65,2-2.09,4.15-1.93,4.17s.86-1.86,2.42-3.77S612.06,376.29,612,376.12Z" style="fill: rgb(69, 90, 100); transform-origin: 609.19px 379.585px;" id="elyhlgtp56hri" class="animable"></path><path d="M638.17,4B8r3B4p7yhRXuBWLqsQ546WR43cqQwrbXMDFnBi6vSJBeif8tPW85a7r7DM961Jvk4hdryZoByEp8GC8HzsqJpRN4FxGM934s-.25-.58-.56-1.5a8.17,8.17,0,0,1-.35-3.71,6.21,6.21,0,0,1,1.46-3.35C637.53,449,638.18,449,638.17,4B8r3B4p7yhRXuBWLqsQ546WR43cqQwrbXMDFnBi6vSJBeif8tPW85a7r7DM961Jvk4hdryZoByEp8GC8HzsqJpRN4FxGM9" class="animable"></path><path d="M630.34,338.53,612.74,386a6.84,6.4B8r3B4p7yhRXuBWLqsQ546WR43cqQwrbXMDFnBi6vSJBeif8tPW85a7r7DM961Jvk4hdryZoByEp8GC8HzsqJpRN4FxGM9,3.4B8r3B4p7yhRXuBWLqsQ546WR43cqQwrbXMDFnBi6vSJBeif8tPW85a7r7DM961Jvk4hdryZoByEp8GC8HzsqJpRN4FxGM9;" id="eldn9b6e3ea25" class="animable"></path><path d="M630.34,338.53s0,0,0-.15a2.57,2.57,0,0,0,.12-.44,3.75,3.75,0,0,0,0-1.79,3.8,3.8,0,0,0-3.4B8r3B4p7yhRXuBWLqsQ546WR43cqQwrbXMDFnBi6vSJBeif8tPW85a7r7DM961Jvk4hdryZoByEp8GC8HzsqJpRN4FxGM9,0,0-1.61,2.11l-15.22,4B8r3B4p7yhRXuBWLqsQ546WR43cqQwrbXMDFnBi6vSJBeif8tPW85a7r7DM961Jvk4hdryZoByEp8GC8HzsqJpRN4FxGM96.67,6.67,0,0,0,3.4B8r3B4p7yhRXuBWLqsQ546WR43cqQwrbXMDFnBi6vSJBeif8tPW85a7r7DM961Jvk4hdryZoByEp8GC8HzsqJpRN4FxGM9-8.4B8r3B4p7yhRXuBWLqsQ546WR43cqQwrbXMDFnBi6vSJBeif8tPW85a7r7DM961Jvk4hdryZoByEp8GC8HzsqJpRN4FxGM992,0,0,1-4,3.4B8r3B4p7yhRXuBWLqsQ546WR43cqQwrbXMDFnBi6vSJBeif8tPW85a7r7DM961Jvk4hdryZoByEp8GC8HzsqJpRN4FxGM9-4B8r3B4p7yhRXuBWLqsQ546WR43cqQwrbXMDFnBi6vSJBeif8tPW85a7r7DM961Jvk4hdryZoByEp8GC8HzsqJpRN4FxGM9,2.16,0a3.4B8r3B4p7yhRXuBWLqsQ546WR43cqQwrbXMDFnBi6vSJBeif8tPW85a7r7DM961Jvk4hdryZoByEp8GC8HzsqJpRN4FxGM938, 50, 56); transform-origin: 569.9px 361.799px;" id="el68llfthhx2f" class="animable"></path><path d="M587.37,356.4B8r3B4p7yhRXuBWLqsQ546WR43cqQwrbXMDFnBi6vSJBeif8tPW85a7r7DM961Jvk4hdryZoByEp8GC8HzsqJpRN4FxGM974-2.4B8r3B4p7yhRXuBWLqsQ546WR43cqQwrbXMDFnBi6vSJBeif8tPW85a7r7DM961Jvk4hdryZoByEp8GC8HzsqJpRN4FxGM9.4B8r3B4p7yhRXuBWLqsQ546WR43cqQwrbXMDFnBi6vSJBeif8tPW85a7r7DM961Jvk4hdryZoByEp8GC8HzsqJpRN4FxGM958.14c-3.28-1.4B8r3B4p7yhRXuBWLqsQ546WR43cqQwrbXMDFnBi6vSJBeif8tPW85a7r7DM961Jvk4hdryZoByEp8GC8HzsqJpRN4FxGM90,0,9,27.31,24.53,24.53,0,0,0,10.9,7.74c.91.28,1.86.52,2.addr1qyjj76q5vsqsvap2a4j0frftu2av6xzxx97vdajs9wzxj3e99a5pgeqpqe6z4mty7jxjhc46e5vyvvtucmm9q2uyd9rshpxsf3-origin: 541.508px 416.519px;" id="elg1by6a5e40m" class="animable"></path><path d="M522.4B8r3B4p7yhRXuBWLqsQ546WR43cqQwrbXMDFnBi6vSJBeif8tPW85a7r7DM961Jvk4hdryZoByEp8GC8HzsqJpRN4FxGM9,24.74,0,0,0-7-1.4B8r3B4p7yhRXuBWLqsQ546WR43cqQwrbXMDFnBi6vSJBeif8tPW85a7r7DM961Jvk4hdryZoByEp8GC8HzsqJpRN4FxGM9-2.4B8r3B4p7yhRXuBWLqsQ546WR43cqQwrbXMDFnBi6vSJBeif8tPW85a7r7DM961Jvk4hdryZoByEp8GC8HzsqJpRN4FxGM90,.79,10.39c.19,1.22.4B8r3B4p7yhRXuBWLqsQ546WR43cqQwrbXMDFnBi6vSJBeif8tPW85a7r7DM961Jvk4hdryZoByEp8GC8HzsqJpRN4FxGM9-.4B8r3B4p7yhRXuBWLqsQ546WR43cqQwrbXMDFnBi6vSJBeif8tPW85a7r7DM961Jvk4hdryZoByEp8GC8HzsqJpRN4FxGM9-8.94a42.14,4B8r3B4p7yhRXuBWLqsQ546WR43cqQwrbXMDFnBi6vSJBeif8tPW85a7r7DM961Jvk4hdryZoByEp8GC8HzsqJpRN4FxGM97.4B8r3B4p7yhRXuBWLqsQ546WR43cqQwrbXMDFnBi6vSJBeif8tPW85a7r7DM961Jvk4hdryZoByEp8GC8HzsqJpRN4FxGM9.79,1.27,2.31,1.67l.58.4B8r3B4p7yhRXuBWLqsQ546WR43cqQwrbXMDFnBi6vSJBeif8tPW85a7r7DM961Jvk4hdryZoByEp8GC8HzsqJpRN4FxGM9638px;" id="elazsedua5gjp" class="animable"></path><path d="M501.35,4B8r3B4p7yhRXuBWLqsQ546WR43cqQwrbXMDFnBi6vSJBeif8tPW85a7r7DM961Jvk4hdryZoByEp8GC8HzsqJpRN4FxGM9,38.71,13.68l.26.08.12-.23c2.18-4.18,4.4B8r3B4p7yhRXuBWLqsQ546WR43cqQwrbXMDFnBi6vSJBeif8tPW85a7r7DM961Jvk4hdryZoByEp8GC8HzsqJpRN4FxGM9,0,0-.4B8r3B4p7yhRXuBWLqsQ546WR43cqQwrbXMDFnBi6vSJBeif8tPW85a7r7DM961Jvk4hdryZoByEp8GC8HzsqJpRN4FxGM9.65l-6.82,13.05.37-.16c-13.91-4.7-26.95-9.37-38.72-13.61l-31-11.29-20.67-7.58-5.58-2-1.45-.51Z" style="fill: rgb(69, 90, 100); transform-origin: 555.645px 4B8r3B4p7yhRXuBWLqsQ546WR43cqQwrbXMDFnBi6vSJBeif8tPW85a7r7DM961Jvk4hdryZoByEp8GC8HzsqJpRN4FxGM9-3.4B8r3B4p7yhRXuBWLqsQ546WR43cqQwrbXMDFnBi6vSJBeif8tPW85a7r7DM961Jvk4hdryZoByEp8GC8HzsqJpRN4FxGM9.4B8r3B4p7yhRXuBWLqsQ546WR43cqQwrbXMDFnBi6vSJBeif8tPW85a7r7DM961Jvk4hdryZoByEp8GC8HzsqJpRN4FxGM9.84,54.4B8r3B4p7yhRXuBWLqsQ546WR43cqQwrbXMDFnBi6vSJBeif8tPW85a7r7DM961Jvk4hdryZoByEp8GC8HzsqJpRN4FxGM9,6.84-6.1,8.36-7.08,1.61-10.71,1.32c-10.27-.8-20.59-4.7-27.58-12.26" style="fill: rgb(0, 184, 99); transform-origin: 531.955px 215.29px;" id="elwcr8soyp6rd" class="animable"></path><path d="M508.08,223.62l-7,50.4B8r3B4p7yhRXuBWLqsQ546WR43cqQwrbXMDFnBi6vSJBeif8tPW85a7r7DM961Jvk4hdryZoByEp8GC8HzsqJpRN4FxGM956,15.81-12.12,1.3-6.13,3-19,4.32-30.61A24.15,24.15,0,0,0,533.26,202l-1.23-.24C518.65,199.87,509.58,210.19,508.08,223.62Z" style="fill: rgb(255, 190, 157); transform-origin: 526.78px 246.677px;" id="elnxvel98bp6p" class="animable"></path><path d="M532.45,271a30.22,30.22,0,0,1-15.64-8s2.09,9.94,15,11.33Z" style="fill: rgb(235, 153, 110); transform-origin: 524.63px 268.665px;" id="elyk5ydktfqy" class="animable"></path><path d="M546.4B8r3B4p7yhRXuBWLqsQ546WR43cqQwrbXMDFnBi6vSJBeif8tPW85a7r7DM961Jvk4hdryZoByEp8GC8HzsqJpRN4FxGM90,0,1,546.82,239.28Z" style="fill: rgb(38, 50, 56); transform-origin: 544.991px 239.016px;" id="el4fbwcjgd82u" class="animable"></path><path d="M548.54,234.16c-.27.19-1.44-1.1-3.4-1.4B8r3B4p7yhRXuBWLqsQ546WR43cqQwrbXMDFnBi6vSJBeif8tPW85a7r7DM961Jvk4hdryZoByEp8GC8HzsqJpRN4FxGM9,548.68,234.08,548.54,234.16Z" style="fill: rgb(38, 50, 56); transform-origin: 544.991px 232.4B8r3B4p7yhRXuBWLqsQ546WR43cqQwrbXMDFnBi6vSJBeif8tPW85a7r7DM961Jvk4hdryZoByEp8GC8HzsqJpRN4FxGM9,1.48,1.76,1.76,0,0,1-1.54-2,1.4B8r3B4p7yhRXuBWLqsQ546WR43cqQwrbXMDFnBi6vSJBeif8tPW85a7r7DM961Jvk4hdryZoByEp8GC8HzsqJpRN4FxGM9origin: 526.769px 235.4B8r3B4p7yhRXuBWLqsQ546WR43cqQwrbXMDFnBi6vSJBeif8tPW85a7r7DM961Jvk4hdryZoByEp8GC8HzsqJpRN4FxGM9-1.49s-3.58.31-3.74,0c-.08-.13.23-.51,1-.84a5,5,0,0,1,3-.31,4.92,4.92,0,0,1,2.65,1.47C529.28,230.14,529.4,230.6,529.27,230.69Z" style="fill: rgb(38, 50, 56); transform-origin: 525.713px 229.328px;" id="el7zdhq3w1cnf" class="animable"></path><path d="M533.4B8r3B4p7yhRXuBWLqsQ546WR43cqQwrbXMDFnBi6vSJBeif8tPW85a7r7DM961Jvk4hdryZoByEp8GC8HzsqJpRN4FxGM9-.71-4.09-1-5.4B8r3B4p7yhRXuBWLqsQ546WR43cqQwrbXMDFnBi6vSJBeif8tPW85a7r7DM961Jvk4hdryZoByEp8GC8HzsqJpRN4FxGM90,1-1,.57,3.33,3.33,0,0,1-.4B8r3B4p7yhRXuBWLqsQ546WR43cqQwrbXMDFnBi6vSJBeif8tPW85a7r7DM961Jvk4hdryZoByEp8GC8HzsqJpRN4FxGM9.713px;" id="el8j3hdp9n2gg" class="animable"></path><path d="M527.44,246.8c.32,0-.1,2.17,1.42,4s3.82,2.09,3.77,2.39c0,.14-.58.31-1.54.15a5.4B8r3B4p7yhRXuBWLqsQ546WR43cqQwrbXMDFnBi6vSJBeif8tPW85a7r7DM961Jvk4hdryZoByEp8GC8HzsqJpRN4FxGM9: rgb(38, 50, 56); transform-origin: 529.761px 250.101px;" id="el607uw05yui3" class="animable"></path><path d="M531.3,223.13c-.3.4B8r3B4p7yhRXuBWLqsQ546WR43cqQwrbXMDFnBi6vSJBeif8tPW85a7r7DM961Jvk4hdryZoByEp8GC8HzsqJpRN4FxGM9,531.43,222.9,531.3,223.13Z" style="fill: rgb(0, 184, 99); transform-origin: 526.768px 222.037px;" id="eltsbhzsm9ct" class="animable"></path><path d="M549,228.36c-.44.38-1.69-.35-3.3-.7s-3-.3-3.28-.4B8r3B4p7yhRXuBWLqsQ546WR43cqQwrbXMDFnBi6vSJBeif8tPW85a7r7DM961Jvk4hdryZoByEp8GC8HzsqJpRN4FxGM9="fill: rgb(0, 184, 99); transform-origin: 545.735px 226.996px;" id="elbub2oj1kr65" class="animable"></path><path d="M507.24,233.24c-.2-.14-8.22-4.33-9.68,4.4B8r3B4p7yhRXuBWLqsQ546WR43cqQwrbXMDFnBi6vSJBeif8tPW85a7r7DM961Jvk4hdryZoByEp8GC8HzsqJpRN4FxGM9-origin: 502.321px 239.013px;" id="elfismsf670wi" class="animable"></path><path d="M503.12,242.06s-.17.08-.4B8r3B4p7yhRXuBWLqsQ546WR43cqQwrbXMDFnBi6vSJBeif8tPW85a7r7DM961Jvk4hdryZoByEp8GC8HzsqJpRN4FxGM90,1,1.34-1,.79.79,0,0,1,.4B8r3B4p7yhRXuBWLqsQ546WR43cqQwrbXMDFnBi6vSJBeif8tPW85a7r7DM961Jvk4hdryZoByEp8GC8HzsqJpRN4FxGM90-1.4B8r3B4p7yhRXuBWLqsQ546WR43cqQwrbXMDFnBi6vSJBeif8tPW85a7r7DM961Jvk4hdryZoByEp8GC8HzsqJpRN4FxGM9,503.15,242.08,503.12,242.06Z" style="fill: rgb(235, 153, 110); transform-origin: 501.58px 238.706px;" id="el6c47299dma" class="animable"></path><path d="M555,216.66c-1.5,3.23-9.22,4.4B8r3B4p7yhRXuBWLqsQ546WR43cqQwrbXMDFnBi6vSJBeif8tPW85a7r7DM961Jvk4hdryZoByEp8GC8HzsqJpRN4FxGM9.3,1.17,7-1.92,13.4B8r3B4p7yhRXuBWLqsQ546WR43cqQwrbXMDFnBi6vSJBeif8tPW85a7r7DM961Jvk4hdryZoByEp8GC8HzsqJpRN4FxGM936.54,0,0,1,2.91-14.08,24.74,24.74,0,0,1,9.14-11,23.5,23.5,0,0,1,17.4-2.88,28.4B8r3B4p7yhRXuBWLqsQ546WR43cqQwrbXMDFnBi6vSJBeif8tPW85a7r7DM961Jvk4hdryZoByEp8GC8HzsqJpRN4FxGM9origin: 530.572px 217.4B8r3B4p7yhRXuBWLqsQ546WR43cqQwrbXMDFnBi6vSJBeif8tPW85a7r7DM961Jvk4hdryZoByEp8GC8HzsqJpRN4FxGM98.52,0,0,1,3.1-4.5,8.24,8.24,0,0,1,7.74-1.11,8.1,8.1,0,0,1,3.77,2.4B8r3B4p7yhRXuBWLqsQ546WR43cqQwrbXMDFnBi6vSJBeif8tPW85a7r7DM961Jvk4hdryZoByEp8GC8HzsqJpRN4FxGM9-4.49c-.35-1.28-.32-2-.4-2a2.15,2.15,0,0,0,0,.55,6.4,6.4,0,0,0,.18,1.55,8.38,8.38,0,0,0,3.06,4.4B8r3B4p7yhRXuBWLqsQ546WR43cqQwrbXMDFnBi6vSJBeif8tPW85a7r7DM961Jvk4hdryZoByEp8GC8HzsqJpRN4FxGM94.82,6.52,6.52,0,0,0-.18,1.56A2,2,0,0,0,537.24,237.8Z" style="fill: rgb(38, 50, 56); transform-origin: 545.862px 237.4B8r3B4p7yhRXuBWLqsQ546WR43cqQwrbXMDFnBi6vSJBeif8tPW85a7r7DM961Jvk4hdryZoByEp8GC8HzsqJpRN4FxGM9,8.4B8r3B4p7yhRXuBWLqsQ546WR43cqQwrbXMDFnBi6vSJBeif8tPW85a7r7DM961Jvk4hdryZoByEp8GC8HzsqJpRN4FxGM90,0,1-3.77,2.4B8r3B4p7yhRXuBWLqsQ546WR43cqQwrbXMDFnBi6vSJBeif8tPW85a7r7DM961Jvk4hdryZoByEp8GC8HzsqJpRN4FxGM9.52,6.52,0,0,0,.18,1.56,8.38,8.38,0,0,0,3.06,4.4B8r3B4p7yhRXuBWLqsQ546WR43cqQwrbXMDFnBi6vSJBeif8tPW85a7r7DM961Jvk4hdryZoByEp8GC8HzsqJpRN4FxGM93.06,4.83,6.52,6.52,0,0,0-.18,1.56A2,2,0,0,0,516.49,234.18Z" style="fill: rgb(38, 50, 56); transform-origin: 525.149px 234.238px;" id="elncyipo9o20r" class="animable"></path><path d="M533.59,234.48c.09.17,1.2-.35,2.49.05s1.94,1.43,2.11,1.33,0-.37-.25-.4B8r3B4p7yhRXuBWLqsQ546WR43cqQwrbXMDFnBi6vSJBeif8tPW85a7r7DM961Jvk4hdryZoByEp8GC8HzsqJpRN4FxGM9, 56); transform-origin: 535.921px 234.793px;" id="elb269zxc9pj" class="animable"></path><path d="M504.74,231.94c0,.2,2.79.31,6.23.27s6.22-.25,6.22-.45-2.79-.31-6.23-.26S504.74,231.74,504.74,231.94Z" style="fill: rgb(38, 50, 56); transform-origin: 510.965px 231.4B8r3B4p7yhRXuBWLqsQ546WR43cqQwrbXMDFnBi6vSJBeif8tPW85a7r7DM961Jvk4hdryZoByEp8GC8HzsqJpRN4FxGM94B8r3B4p7yhRXuBWLqsQ546WR43cqQwrbXMDFnBi6vSJBeif8tPW85a7r7DM961Jvk4hdryZoByEp8GC8HzsqJpRN4FxGM9,0,1-7.4B8r3B4p7yhRXuBWLqsQ546WR43cqQwrbXMDFnBi6vSJBeif8tPW85a7r7DM961Jvk4hdryZoByEp8GC8HzsqJpRN4FxGM91.4B8r3B4p7yhRXuBWLqsQ546WR43cqQwrbXMDFnBi6vSJBeif8tPW85a7r7DM961Jvk4hdryZoByEp8GC8HzsqJpRN4FxGM9559.1,208.3,559.13,208.31Z" style="fill: rgb(255, 255, 255); transform-origin: 549.53px 210.335px;" id="elah0qtylu8zw" class="animable"></path><path d="M561.07,210.29a8.08,8.08,0,0,1-.75,2.4,10.24,10.24,0,0,1-9.4B8r3B4p7yhRXuBWLqsQ546WR43cqQwrbXMDFnBi6vSJBeif8tPW85a7r7DM961Jvk4hdryZoByEp8GC8HzsqJpRN4FxGM90,9.72-5.82,9.66,9.66,0,0,0,.68-1.69A5,5,0,0,1,561.07,210.29Z" style="fill: rgb(255, 255, 255); transform-origin: 554.53px 214.444px;" id="ely1fdnuce8s8" class="animable"></path></g><defs>     <filter id="active" height="200%">         <feMorphology in="SourceAlpha" result="DILATED" operator="dilate" radius="2"></feMorphology>                <feFlood flood-color="#32DFEC" flood-opacity="1" result="PINK"></feFlood>        <feComposite in="PINK" in2="DILATED" operator="in" result="OUTLINE"></feComposite>        <feMerge>            <feMergeNode in="OUTLINE"></feMergeNode>            <feMergeNode in="SourceGraphic"></feMergeNode>        </feMerge>    </filter>    <filter id="hover" height="200%">        <feMorphology in="SourceAlpha" result="DILATED" operator="dilate" radius="2"></feMorphology>                <feFlood flood-color="#ff0000" flood-opacity="0.5" result="PINK"></feFlood>        <feComposite in="PINK" in2="DILATED" operator="in" result="OUTLINE"></feComposite>        <feMerge>            <feMergeNode in="OUTLINE"></feMergeNode>            <feMergeNode in="SourceGraphic"></feMergeNode>        </feMerge>            <feColorMatrix type="matrix" values="0   0   0   0   0                0   1   0   0   0                0   0   0   0   0                0   0   0   1   0 "></feColorMatrix>    </filter></defs></svg>